<svg width="450" height="354" viewBox="0 0 450 354" fill="none" xmlns="http://www.w3.org/2000/svg">
<g clip-path="url(#clip0)">
<path d="M426.898 331.793L446.37 304.405L426.858 334.793L426.816 337.931C425.447 337.906 424.092 337.848 422.752 337.757C422.753 337.044 424.777 297.857 424.715 297.147C424.81 297.121 424.9 293.441 424.939 293.28L405.187 262.94L424.989 290.428L425.041 291.235L426.537 260.788L409.61 229.425L426.727 255.438C426.737 255.023 428.179 192.493 428.191 192.107C428.194 192.312 428.072 241.879 428.073 242.088L444.759 222.303L428.014 246.375L427.657 273.634L443.22 247.427C423.742 285.679 428.102 272.268 427.409 292.8L450 256.316L427.337 298.087L426.898 331.793Z" fill="#D0CDE1"/>
<path d="M223.543 353.094C347.003 353.094 447.087 348.418 447.087 342.651C447.087 336.883 347.003 332.207 223.543 332.207C100.084 332.207 0 336.883 0 342.651C0 348.418 100.084 353.094 223.543 353.094Z" fill="#D0CDE1"/>
<path d="M254.735 3.79055V162.45C254.735 164.748 253.822 166.952 252.197 168.577C250.572 170.201 248.369 171.114 246.071 171.114C243.773 171.114 241.569 170.201 239.944 168.577C238.32 166.952 237.407 164.748 237.407 162.45V3.79055C237.407 -0.996328 241.284 2.70755 246.071 2.70755C248.464 2.70755 248.291 0.0596089 249.861 1.62455C251.426 3.19488 254.735 1.3971 254.735 3.79055Z" fill="#A0616A"/>
<path opacity="0.1" d="M254.735 7.85178H237.407V14.3498H254.735V7.85178Z" fill="black"/>
<path opacity="0.1" d="M254.735 28.4288H237.407V34.9268H254.735V28.4288Z" fill="black"/>
<path opacity="0.1" d="M254.735 49.0058H237.407V55.5038H254.735V49.0058Z" fill="black"/>
<path opacity="0.1" d="M254.735 69.5828H237.407V76.0808H254.735V69.5828Z" fill="black"/>
<path opacity="0.1" d="M254.735 90.1598H237.407V96.6578H254.735V90.1598Z" fill="black"/>
<path opacity="0.1" d="M254.735 110.737H237.407V117.235H254.735V110.737Z" fill="black"/>
<path opacity="0.1" d="M254.735 131.314H237.407V137.812H254.735V131.314Z" fill="black"/>
<path opacity="0.1" d="M254.735 151.891H237.407V158.389H254.735V151.891Z" fill="black"/>
<path d="M246.071 5.415C250.856 5.415 254.735 4.20281 254.735 2.7075C254.735 1.21219 250.856 0 246.071 0C241.286 0 237.407 1.21219 237.407 2.7075C237.407 4.20281 241.286 5.415 246.071 5.415Z" fill="#A0616A"/>
<path opacity="0.1" d="M246.071 5.415C250.856 5.415 254.735 4.20281 254.735 2.7075C254.735 1.21219 250.856 0 246.071 0C241.286 0 237.407 1.21219 237.407 2.7075C237.407 4.20281 241.286 5.415 246.071 5.415Z" fill="black"/>
<path d="M335.926 37.4715L235.531 160.328C234.811 161.209 233.924 161.94 232.922 162.479C231.92 163.017 230.821 163.353 229.689 163.467C228.557 163.581 227.413 163.471 226.323 163.143C225.234 162.815 224.219 162.276 223.338 161.556C222.457 160.836 221.726 159.949 221.188 158.947C220.649 157.944 220.314 156.845 220.2 155.713C220.086 154.581 220.197 153.437 220.525 152.348C220.853 151.258 221.393 150.244 222.113 149.363L322.508 26.5068C325.537 22.8001 326.196 28.1215 329.902 31.1505C331.756 32.665 333.297 30.505 333.523 32.7104C333.741 34.9167 337.44 35.6181 335.926 37.4715Z" fill="#A0616A"/>
<path opacity="0.1" d="M319.939 29.6515L315.827 34.6832L329.245 45.6478L333.357 40.6162L319.939 29.6515Z" fill="black"/>
<path opacity="0.1" d="M306.918 45.5851L302.806 50.6167L316.224 61.5814L320.336 56.5498L306.918 45.5851Z" fill="black"/>
<path opacity="0.1" d="M293.897 61.5187L289.786 66.5504L303.203 77.515L307.315 72.4834L293.897 61.5187Z" fill="black"/>
<path opacity="0.1" d="M280.877 77.4523L276.765 82.4839L290.183 93.4486L294.295 88.4169L280.877 77.4523Z" fill="black"/>
<path opacity="0.1" d="M267.856 93.3859L263.744 98.4175L277.162 109.382L281.274 104.35L267.856 93.3859Z" fill="black"/>
<path opacity="0.1" d="M254.835 109.319L250.724 114.351L264.141 125.316L268.253 120.284L254.835 109.319Z" fill="black"/>
<path opacity="0.1" d="M241.814 125.252L237.703 130.284L251.12 141.249L255.232 136.217L241.814 125.252Z" fill="black"/>
<path opacity="0.1" d="M228.795 141.187L224.683 146.218L238.101 157.183L242.212 152.151L228.795 141.187Z" fill="black"/>
<path d="M336.611 36.6329C337.558 35.475 335.321 32.0818 331.616 29.054C327.911 26.0262 324.14 24.5103 323.194 25.6682C322.248 26.8261 324.484 30.2192 328.189 33.247C331.895 36.2748 335.665 37.7907 336.611 36.6329Z" fill="#A0616A"/>
<path opacity="0.1" d="M336.611 36.6329C337.558 35.475 335.321 32.0818 331.616 29.054C327.911 26.0262 324.14 24.5103 323.194 25.6682C322.248 26.8261 324.484 30.2192 328.189 33.247C331.895 36.2748 335.665 37.7907 336.611 36.6329Z" fill="black"/>
<path d="M335.102 184.652H311.915L312.085 180.314L313.081 154.69L313.579 141.96H152.12L152.374 148.474L153.035 165.461L154.291 197.696L155.131 219.156L156.214 246.913L157.134 270.62L157.4 277.438L157.405 277.519L157.535 280.914L157.871 289.421L157.903 290.369L158.131 296.141L158.168 297.181L158.499 305.569L158.791 313.128L158.894 315.738L158.943 316.924L158.986 318.072C158.98 321.968 159.738 325.828 161.217 329.433C161.605 330.387 162.044 331.32 162.533 332.227C166.102 338.889 172.052 343.961 179.195 346.43C180.138 346.761 181.098 347.041 182.07 347.27C184.339 347.809 186.664 348.08 188.996 348.076H276.697C281.109 348.083 285.467 347.114 289.461 345.239C293.906 343.136 297.772 339.982 300.724 336.05C301.978 334.382 303.052 332.587 303.93 330.694C304 330.543 304.07 330.391 304.13 330.239C305.623 326.894 306.482 323.301 306.664 319.642C306.691 319.122 306.707 318.597 306.707 318.072L306.989 310.843L307.336 301.968L307.368 301.085L307.727 291.869H335.102C344.805 291.858 354.107 287.999 360.967 281.138C367.828 274.277 371.687 264.975 371.698 255.272V221.248C371.687 211.545 367.828 202.243 360.967 195.382C354.107 188.522 344.805 184.663 335.102 184.652ZM350.038 255.272C350.034 259.232 348.459 263.029 345.659 265.829C342.858 268.629 339.062 270.204 335.102 270.209H308.577L308.581 270.111L308.83 263.711L309.02 258.826L310.092 231.351L311.068 206.312H335.102C339.062 206.316 342.858 207.891 345.659 210.691C348.459 213.491 350.034 217.288 350.038 221.248L350.038 255.272Z" fill="#3F3D56"/>
<path d="M190.964 42.6584C200.641 42.6584 208.485 34.8139 208.485 25.1371C208.485 15.4604 200.641 7.61588 190.964 7.61588C181.287 7.61588 173.443 15.4604 173.443 25.1371C173.443 34.8139 181.287 42.6584 190.964 42.6584Z" fill="#D0CDE1"/>
<path d="M201.966 84.1884C215.256 84.1884 226.029 73.4152 226.029 60.1259C226.029 46.8365 215.256 36.0633 201.966 36.0633C188.677 36.0633 177.904 46.8365 177.904 60.1259C177.904 73.4152 188.677 84.1884 201.966 84.1884Z" fill="#D0CDE1"/>
<path d="M209.049 33.1641L181.396 41.86C181.191 41.9243 181.021 42.067 180.922 42.2569C180.823 42.4468 180.803 42.6683 180.868 42.8726L181.364 44.4519C181.396 44.5531 181.447 44.647 181.515 44.7283C181.584 44.8096 181.667 44.8767 181.761 44.9257C181.855 44.9747 181.958 45.0048 182.063 45.0141C182.169 45.0234 182.276 45.0118 182.377 44.98L187.077 43.5021L187.709 43.8134L190.163 66.4874L194.053 69.2265L191.403 45.6329L209.231 54.4129L213.032 52.4829L191.848 42.0016L210.03 36.2841C210.132 36.2523 210.226 36.2009 210.307 36.1328C210.388 36.0647 210.455 35.9812 210.504 35.8872C210.553 35.7932 210.583 35.6904 210.593 35.5848C210.602 35.4791 210.59 35.3727 210.559 35.2715L210.062 33.6922C210.03 33.5911 209.979 33.4971 209.911 33.4159C209.843 33.3346 209.759 33.2675 209.665 33.2184C209.571 33.1694 209.468 33.1394 209.363 33.13C209.257 33.1207 209.151 33.1323 209.049 33.1641Z" fill="#6C63FF"/>
<path d="M179.305 19.7421C179.305 19.7421 185.34 13.9099 184.937 12.6312C184.535 11.3525 180.516 8.40097 175.401 10.0094C175.401 10.0094 173.399 8.10978 172.427 10.3825C171.455 12.6552 174.159 13.2102 174.159 13.2102C174.159 13.2102 172.794 18.6982 177.77 20.2246L179.305 19.7421Z" fill="#6C63FF"/>
<path d="M183.673 25.1582C184.447 25.1582 185.074 24.5306 185.074 23.7565C185.074 22.9824 184.447 22.3548 183.673 22.3548C182.899 22.3548 182.271 22.9824 182.271 23.7565C182.271 24.5306 182.899 25.1582 183.673 25.1582Z" fill="#3F3D56"/>
<path d="M196.152 21.2337C196.927 21.2337 197.554 20.6061 197.554 19.832C197.554 19.0578 196.927 18.4303 196.152 18.4303C195.378 18.4303 194.751 19.0578 194.751 19.832C194.751 20.6061 195.378 21.2337 196.152 21.2337Z" fill="#3F3D56"/>
<path d="M192.049 24.306L189.597 25.0769L191.98 32.6541L194.432 31.8832L192.049 24.306Z" fill="#FF6584"/>
<path d="M199.819 53.1416C200.593 53.1416 201.22 52.514 201.22 51.7399C201.22 50.9657 200.593 50.3382 199.819 50.3382C199.045 50.3382 198.417 50.9657 198.417 51.7399C198.417 52.514 199.045 53.1416 199.819 53.1416Z" fill="#3F3D56"/>
<path d="M201.361 58.0446C202.135 58.0446 202.762 57.4171 202.762 56.6429C202.762 55.8688 202.135 55.2412 201.361 55.2412C200.587 55.2412 199.959 55.8688 199.959 56.6429C199.959 57.4171 200.587 58.0446 201.361 58.0446Z" fill="#3F3D56"/>
<path d="M202.903 62.9475C203.677 62.9475 204.304 62.3199 204.304 61.5458C204.304 60.7716 203.677 60.1441 202.903 60.1441C202.129 60.1441 201.501 60.7716 201.501 61.5458C201.501 62.3199 202.129 62.9475 202.903 62.9475Z" fill="#3F3D56"/>
<path d="M194.081 35.0526C191.849 35.7254 189.484 35.8282 187.202 35.3517L187.29 34.8928C189.494 35.3803 191.787 35.2805 193.94 34.6034C196.093 33.9264 198.031 32.6958 199.559 31.0347L199.893 31.3609C198.295 33.0577 196.297 34.3269 194.081 35.0526Z" fill="#3F3D56"/>
<path d="M200.98 23.8904C201.625 23.8904 202.148 23.3674 202.148 22.7223C202.148 22.0772 201.625 21.5542 200.98 21.5542C200.334 21.5542 199.812 22.0772 199.812 22.7223C199.812 23.3674 200.334 23.8904 200.98 23.8904Z" fill="#FF6584"/>
<path d="M181.368 30.0573C182.013 30.0573 182.536 29.5343 182.536 28.8892C182.536 28.2441 182.013 27.7211 181.368 27.7211C180.723 27.7211 180.2 28.2441 180.2 28.8892C180.2 29.5343 180.723 30.0573 181.368 30.0573Z" fill="#FF6584"/>
<path d="M255.245 208.825C256.764 208.825 257.996 207.593 257.996 206.074C257.996 204.556 256.764 203.324 255.245 203.324C253.726 203.324 252.495 204.556 252.495 206.074C252.495 207.593 253.726 208.825 255.245 208.825Z" fill="#D0CDE1"/>
<path d="M263.909 254.311C265.428 254.311 266.659 253.079 266.659 251.561C266.659 250.042 265.428 248.81 263.909 248.81C262.39 248.81 261.158 250.042 261.158 251.561C261.158 253.079 262.39 254.311 263.909 254.311Z" fill="#D0CDE1"/>
<path d="M209.759 265.682C211.278 265.682 212.51 264.451 212.51 262.932C212.51 261.413 211.278 260.182 209.759 260.182C208.24 260.182 207.009 261.413 207.009 262.932C207.009 264.451 208.24 265.682 209.759 265.682Z" fill="#D0CDE1"/>
<path d="M237.375 317.666C238.894 317.666 240.126 316.435 240.126 314.916C240.126 313.397 238.894 312.166 237.375 312.166C235.856 312.166 234.625 313.397 234.625 314.916C234.625 316.435 235.856 317.666 237.375 317.666Z" fill="#D0CDE1"/>
<path d="M175.645 275.971C177.163 275.971 178.395 274.739 178.395 273.221C178.395 271.702 177.163 270.47 175.645 270.47C174.126 270.47 172.894 271.702 172.894 273.221C172.894 274.739 174.126 275.971 175.645 275.971Z" fill="#D0CDE1"/>
<path d="M173.479 222.904C174.997 222.904 176.229 221.672 176.229 220.153C176.229 218.635 174.997 217.403 173.479 217.403C171.96 217.403 170.728 218.635 170.728 220.153C170.728 221.672 171.96 222.904 173.479 222.904Z" fill="#D0CDE1"/>
<path d="M287.735 201.785C289.254 201.785 290.485 200.554 290.485 199.035C290.485 197.516 289.254 196.285 287.735 196.285C286.216 196.285 284.985 197.516 284.985 199.035C284.985 200.554 286.216 201.785 287.735 201.785Z" fill="#D0CDE1"/>
<path d="M201.636 314.959C203.155 314.959 204.387 313.727 204.387 312.209C204.387 310.69 203.155 309.458 201.636 309.458C200.118 309.458 198.886 310.69 198.886 312.209C198.886 313.727 200.118 314.959 201.636 314.959Z" fill="#D0CDE1"/>
<path d="M188.099 190.309C190.158 190.309 191.828 188.64 191.828 186.58C191.828 184.521 190.158 182.852 188.099 182.852C186.04 182.852 184.371 184.521 184.371 186.58C184.371 188.64 186.04 190.309 188.099 190.309Z" fill="#D0CDE1"/>
<path d="M224.922 229.297C226.981 229.297 228.65 227.628 228.65 225.568C228.65 223.509 226.981 221.84 224.922 221.84C222.862 221.84 221.193 223.509 221.193 225.568C221.193 227.628 222.862 229.297 224.922 229.297Z" fill="#D0CDE1"/>
<path d="M272.573 307.814C274.632 307.814 276.302 306.145 276.302 304.086C276.302 302.027 274.632 300.358 272.573 300.358C270.514 300.358 268.845 302.027 268.845 304.086C268.845 306.145 270.514 307.814 272.573 307.814Z" fill="#D0CDE1"/>
<path d="M232.847 151.772C277.533 151.772 313.758 147.379 313.758 141.959C313.758 136.54 277.533 132.146 232.847 132.146C188.162 132.146 151.937 136.54 151.937 141.959C151.937 147.379 188.162 151.772 232.847 151.772Z" fill="#A0616A"/>
<path d="M234.854 40.3915C234.854 40.3915 237.345 59.8391 213.291 66.3672C189.237 72.8953 183.042 87.0035 183.042 87.0035C183.042 87.0035 157.316 94.0619 173.057 110.041C173.057 110.041 136.531 135.245 172.208 145.635C207.885 156.025 304.268 148.994 300.228 129.302C300.228 129.302 305.241 120.168 293.621 118.336C293.621 118.336 309.803 96.2752 268.947 83.4807C268.947 83.4807 275.592 76.589 257.816 78.5494C257.816 78.5494 268.897 33.4538 234.854 40.3915Z" fill="#D0CDE1"/>
<path d="M182.626 88.1132L182.562 86.5462C211.147 85.374 226.844 76.4573 234.979 69.1834C243.768 61.3251 245.861 53.6414 245.881 53.5644L247.399 53.9592C247.314 54.2878 245.208 62.1001 236.118 70.2694C227.793 77.7505 211.755 86.9188 182.626 88.1132Z" fill="#A0616A"/>
<path d="M172.784 111.132L172.435 109.603C172.559 109.575 185.201 106.703 220.073 99.6416C243.943 94.8078 249.662 89.8403 250.947 87.3094C251.211 86.887 251.313 86.3833 251.234 85.8914L252.659 85.2351C252.712 85.3515 253.158 86.4172 252.345 88.0194C250.619 91.4195 243.673 96.4625 220.384 101.179C185.537 108.236 172.907 111.104 172.784 111.132Z" fill="#A0616A"/>
<path d="M188.586 117.591C188.437 117.591 188.329 117.591 188.262 117.591L188.271 116.022C188.814 116.029 245.665 116.1 263.161 97.293C266.879 93.2963 268.563 88.6696 268.165 83.5413L269.729 83.4203C270.162 89.0039 268.338 94.0311 264.309 98.3622C246.851 117.127 193.725 117.591 188.586 117.591Z" fill="#A0616A"/>
<path d="M255.172 136.864C255.121 136.864 255.092 136.863 255.084 136.863L255.106 135.295C255.372 135.292 282.507 135.473 292.947 117.935L294.295 118.737C283.694 136.547 256.922 136.864 255.172 136.864Z" fill="#A0616A"/>
<path d="M238.645 39.3086C238.645 39.3086 241.135 58.7562 217.081 65.2843C193.027 71.8124 186.833 85.9206 186.833 85.9206C186.833 85.9206 161.107 92.979 176.848 108.959C176.848 108.959 140.321 134.162 175.999 144.552C211.676 154.942 308.059 147.911 304.019 128.219C304.019 128.219 309.032 119.085 297.412 117.253C297.412 117.253 313.594 95.1923 272.738 82.3978C272.738 82.3978 279.383 75.5061 261.606 77.4666C261.606 77.4665 272.688 32.3709 238.645 39.3086Z" fill="#D0CDE1"/>
<path d="M186.416 87.0303L186.352 85.4633C214.937 84.2911 230.634 75.3744 238.769 68.1004C247.558 60.2421 249.651 52.5585 249.671 52.4815L251.189 52.8763C251.104 53.2049 248.998 61.0172 239.908 69.1864C231.583 76.6676 215.545 85.8359 186.416 87.0303Z" fill="#A0616A"/>
<path d="M176.573 110.049L176.225 108.52C176.348 108.492 188.991 105.62 223.862 98.5586C247.732 93.7248 253.451 88.7573 254.736 86.2264C255 85.804 255.102 85.3003 255.023 84.8084L256.448 84.152C256.502 84.2684 256.948 85.3341 256.134 86.9364C254.408 90.3365 247.463 95.3794 224.174 100.096C189.326 107.153 176.697 110.021 176.573 110.049Z" fill="#A0616A"/>
<path d="M192.376 116.508C192.228 116.508 192.119 116.508 192.053 116.508L192.061 114.939C192.605 114.946 249.455 115.017 266.951 96.21C270.669 92.2132 272.353 87.5866 271.956 82.4582L273.52 82.3372C273.952 87.9209 272.128 92.9481 268.099 97.2791C250.641 116.044 197.515 116.508 192.376 116.508Z" fill="#A0616A"/>
<path d="M258.962 135.781C258.912 135.781 258.882 135.78 258.874 135.78L258.897 134.212C259.163 134.209 286.297 134.39 296.737 116.852L298.085 117.654C287.484 135.464 260.713 135.781 258.962 135.781Z" fill="#A0616A"/>
<path d="M59.2099 150.766C63.8796 150.766 67.6651 146.98 67.6651 142.31C67.6651 137.641 63.8796 133.855 59.2099 133.855C54.5402 133.855 50.7546 137.641 50.7546 142.31C50.7546 146.98 54.5402 150.766 59.2099 150.766Z" fill="#2F2E41"/>
<path d="M67.6527 138.873L62.3604 137.575C60.3403 137.575 58.3454 137.126 56.5201 136.261C54.6949 135.395 53.0849 134.134 51.8066 132.57C50.5284 131.006 49.6139 129.177 49.1293 127.216C48.6448 125.254 48.6022 123.21 49.0048 121.23C49.0048 118.891 49.4656 116.575 50.3608 114.413C51.2561 112.252 52.5683 110.288 54.2225 108.634C55.8767 106.98 57.8405 105.668 60.0018 104.772C62.1631 103.877 64.4796 103.416 66.819 103.416H66.819C69.1584 103.416 71.4749 103.877 73.6362 104.772C75.7975 105.668 77.7613 106.98 79.4155 108.634C81.0697 110.288 82.3819 112.252 83.2772 114.413C84.1724 116.575 84.6332 118.891 84.6332 121.23C85.315 123.614 85.3587 126.135 84.7601 128.541C84.1614 130.947 82.9414 133.154 81.222 134.94C79.5027 136.726 77.3444 138.03 74.963 138.72C72.5817 139.41 70.0608 139.463 67.6527 138.873Z" fill="#2F2E41"/>
<path d="M33.6128 193.061L46.6962 174.44L53.7988 187.63L45.6817 197.1L33.6128 193.061Z" fill="#575A89"/>
<path d="M40.4391 191.182C40.4391 191.182 36.3806 189.491 34.0131 192.535C31.6457 195.578 27.5871 202.004 28.94 203.019C30.2929 204.033 34.6896 199.975 34.6896 199.975L40.4391 191.182Z" fill="#575A89"/>
<path d="M35.2097 205.084C37.1891 202.601 37.728 199.739 36.4135 198.691C35.099 197.643 32.4288 198.807 30.4494 201.29C28.4701 203.773 27.9311 206.635 29.2456 207.683C30.5602 208.731 33.2304 207.567 35.2097 205.084Z" fill="#FFB8B8"/>
<path d="M27.2485 238.193C27.2485 238.193 27.925 259.838 30.2924 272.352C32.6599 284.866 28.9396 329.847 28.9396 329.847L36.3802 333.23L41.1151 328.156C41.1151 328.156 39.4241 319.025 41.7916 312.599C44.159 306.173 45.1736 278.44 45.1736 278.44L49.2322 241.237L27.2485 238.193Z" fill="#FFB8B8"/>
<path d="M54.9819 244.619L76.2891 283.513L95.5671 319.025V326.465L105.375 323.421L101.993 315.643C101.993 315.643 100.302 285.204 88.1264 273.367L77.6419 243.266L54.9819 244.619Z" fill="#FFB8B8"/>
<path d="M42.2995 192.365H38.5792C38.5792 192.365 18.2866 220.099 19.3012 237.009L48.3872 248.846L49.4019 246.479C49.4019 246.479 73.4148 250.876 79.5025 245.802L71.0473 202.512L70.3708 196.424L42.2995 192.365Z" fill="#2F2E41"/>
<path d="M32.9988 329.509C32.9988 329.509 37.7338 323.421 31.9842 323.083C26.2346 322.745 26.2346 326.465 26.2346 326.465L13.3827 335.259C13.3827 335.259 -7.92453 343.038 7.29489 345.405C7.29489 345.405 13.7209 346.758 21.8379 343.714C26.7131 341.883 31.853 340.855 37.0573 340.67C37.0573 340.67 44.4979 340.332 44.4979 336.612C44.4979 332.891 40.8681 326.465 40.8681 326.465C40.8681 326.465 35.0281 330.524 32.9988 329.509Z" fill="#2F2E41"/>
<path d="M106.052 321.054C106.052 321.054 94.5525 318.687 94.2143 323.083C93.8761 327.48 94.2143 334.921 94.2143 334.921C94.2143 334.921 96.92 338.303 96.2435 340.67C95.5671 343.038 97.9346 350.478 106.052 349.464C114.169 348.449 111.463 336.95 111.463 336.95L106.052 323.76V321.054Z" fill="#2F2E41"/>
<path d="M69.1872 134.193C75.4446 134.193 80.5172 129.121 80.5172 122.863C80.5172 116.606 75.4446 111.533 69.1872 111.533C62.9298 111.533 57.8572 116.606 57.8572 122.863C57.8572 129.121 62.9298 134.193 69.1872 134.193Z" fill="#FFB8B8"/>
<path d="M61.577 129.12L61.408 148.567L75.2745 143.832C75.2745 143.832 73.5835 132.671 73.9217 131.657L61.577 129.12Z" fill="#FFB8B8"/>
<path d="M59.041 142.818C59.041 142.818 73.584 137.745 75.2751 138.421C76.9661 139.097 77.6426 142.818 77.6426 142.818C77.6426 142.818 85.7596 141.127 86.7742 146.538C87.7888 151.949 80.3482 175.624 80.3482 175.624L72.9076 189.491C72.9076 189.491 76.6279 195.24 70.202 197.269C63.776 199.299 40.4395 192.873 40.4395 192.873C40.4395 192.873 36.381 188.138 40.4395 188.138C40.4395 188.138 41.7924 183.741 43.1452 182.726C44.498 181.712 42.1306 180.021 43.4834 179.682C44.8363 179.344 44.8363 178.668 44.8363 178.668C44.8363 178.668 38.0721 169.536 44.1598 162.096C50.2476 154.655 51.0931 147.722 54.137 146.707C57.1809 145.692 59.041 142.818 59.041 142.818Z" fill="#575A89"/>
<path d="M67.4566 223.257C70.3989 222.063 72.2716 219.832 71.6393 218.274C71.007 216.717 68.1093 216.422 65.167 217.616C62.2248 218.811 60.3522 221.041 60.9844 222.599C61.6167 224.157 64.5144 224.451 67.4566 223.257Z" fill="#FFB8B8"/>
<path d="M81.7006 145.523H86.4688C86.4688 145.523 100.302 179.006 96.2437 189.491C92.1851 199.975 77.3039 218.238 77.3039 218.238C77.3039 218.238 72.569 226.694 69.1869 226.694C65.8048 226.694 62.0845 214.518 62.0845 214.518L72.9072 209.783L85.7592 186.108L79.6714 167.845L81.7006 145.523Z" fill="#575A89"/>
<path opacity="0.2" d="M44.6672 178.499L37.2263 191.689L38.579 192.365L44.6672 178.499Z" fill="black"/>
<path opacity="0.2" d="M58.8895 208.179L49.0664 246.393L49.7217 246.561L59.5448 208.347L58.8895 208.179Z" fill="black"/>
<path d="M82.8846 118.298L80.8553 114.577L77.8114 116.618C77.4983 117.05 77.0853 117.4 76.6076 117.637C76.13 117.875 75.6019 117.993 75.0685 117.983L64.4409 117.768C63.9638 117.759 63.4937 117.652 63.0595 117.454C62.6253 117.256 62.236 116.972 61.9156 116.618C61.0801 116.928 60.3317 117.435 59.7339 118.095C59.1361 118.756 58.7064 119.551 58.4815 120.413L57.1807 125.4V108.489H77.4732L82.8846 118.298Z" fill="#2F2E41"/>
</g>
<defs>
<clipPath id="clip0">
<rect width="450" height="353.094" fill="white"/>
</clipPath>
</defs>
</svg>
