<svg width="218" height="35" viewBox="0 0 218 35" fill="none" xmlns="http://www.w3.org/2000/svg">
<path fill-rule="evenodd" clip-rule="evenodd" d="M140.369 0.0500488C141.419 0.0500488 142.259 0.335049 142.889 0.905049C143.321 1.27802 143.612 1.72806 143.761 2.25516C144.192 2.3976 144.568 2.61423 144.889 2.90505C145.549 3.47505 145.879 4.22505 145.879 5.15505V31.0751C145.879 32.0351 145.564 32.815 144.934 33.4151C144.334 33.9851 143.524 34.2701 142.504 34.2701C141.484 34.2701 140.659 33.9851 140.029 33.4151C139.691 33.0764 139.448 32.6804 139.3 32.227C139.287 32.1858 139.274 32.1441 139.262 32.1018C138.957 32.0108 138.678 31.8829 138.423 31.718C138.353 31.8011 138.28 31.8825 138.206 31.9623C137.672 32.5335 137.035 33.0178 136.294 33.4151C135.094 34.0451 133.729 34.3601 132.199 34.3601C130.309 34.3601 128.614 33.8801 127.114 32.9201C126.211 32.3119 125.427 31.5622 124.762 30.671C123.459 29.7055 122.421 28.4235 121.649 26.8251C120.839 25.055 120.434 23.03 120.434 20.75C120.434 18.47 120.839 16.475 121.649 14.765C122.489 13.0251 123.644 11.69 125.114 10.76C126.584 9.83005 128.279 9.36505 130.199 9.36505C131.699 9.36505 133.049 9.68005 134.249 10.31C135.382 10.89 136.272 11.686 136.922 12.6981C136.976 12.7337 137.031 12.7699 137.084 12.8068V3.02005C137.084 2.12005 137.384 1.40005 137.984 0.860049C138.584 0.320049 139.379 0.0500488 140.369 0.0500488ZM127.562 32.0143C127.595 32.0378 127.629 32.061 127.663 32.0841C128.99 32.9305 130.492 33.3601 132.199 33.3601C133.586 33.3601 134.787 33.076 135.825 32.5321C136.581 32.1261 137.202 31.624 137.699 31.025C137.385 30.582 137.201 30.0611 137.146 29.4624C136.883 29.6132 136.605 29.7399 136.315 29.8429C135.759 30.4663 135.086 30.9904 134.294 31.4151C133.094 32.045 131.729 32.3601 130.199 32.3601C129.273 32.3601 128.394 32.2448 127.562 32.0143ZM136.353 16.9771C136.871 17.9793 137.129 19.267 137.129 20.84C137.129 22.8801 136.694 24.455 135.824 25.5651C134.984 26.6451 133.769 27.1851 132.179 27.1851C131.355 27.1851 130.627 27.0358 129.996 26.7373C129.455 25.6882 129.184 24.3591 129.184 22.75C129.184 20.74 129.619 19.2101 130.489 18.16C131.359 17.08 132.589 16.5401 134.179 16.5401C135.005 16.5401 135.73 16.6857 136.353 16.9771ZM135.337 15.6322C134.967 15.5705 134.581 15.5401 134.179 15.5401C132.339 15.5401 130.804 16.1791 129.715 17.5276C128.643 18.8245 128.184 20.6171 128.184 22.75C128.184 23.7489 128.282 24.6766 128.49 25.5209L128.489 25.5201C127.619 24.3801 127.184 22.79 127.184 20.75C127.184 18.74 127.619 17.2101 128.489 16.16C129.359 15.08 130.589 14.5401 132.179 14.5401C133.485 14.5401 134.538 14.9041 135.337 15.6322ZM140.403 32.2691C140.49 32.4248 140.596 32.5641 140.719 32.6902C141.128 33.0518 141.692 33.2701 142.504 33.2701C143.331 33.2701 143.872 33.0445 144.246 32.69C144.655 32.2995 144.879 31.7922 144.879 31.0751V5.15505C144.879 4.49374 144.66 4.02804 144.236 3.66187L144.227 3.65433L144.218 3.64658C144.117 3.55476 144.004 3.47152 143.879 3.39833V29.0751C143.879 30.0351 143.564 30.8151 142.934 31.4151C142.334 31.9851 141.524 32.2701 140.504 32.2701C140.47 32.2701 140.437 32.2697 140.403 32.2691Z" fill="#333333"/>
<path fill-rule="evenodd" clip-rule="evenodd" d="M23.9964 4.24983C23.6474 3.75555 23.2436 3.30062 22.785 2.88505C20.865 1.14505 18.18 0.275049 14.73 0.275049H3.43502C2.38502 0.275049 1.57502 0.560048 1.00502 1.13005C0.435024 1.70005 0.150024 2.51005 0.150024 3.56005V28.76C0.150024 29.84 0.465024 30.6951 1.09502 31.3251C1.44201 31.672 1.85724 31.9235 2.34073 32.0793C2.49661 32.5628 2.74804 32.9781 3.09502 33.3251C3.72502 33.955 4.58002 34.2701 5.66002 34.2701C6.74002 34.2701 7.59503 33.955 8.22503 33.3251C8.85503 32.6951 9.17002 31.84 9.17002 30.76V22.0751H16.73C20.18 22.0751 22.865 21.205 24.785 19.465C26.705 17.725 27.665 15.295 27.665 12.175C27.665 9.05505 26.705 6.62505 24.785 4.88505C24.5351 4.65857 24.2723 4.44683 23.9964 4.24983ZM3.52225 32.2683C3.56776 32.2695 3.61368 32.2701 3.66002 32.2701C4.74002 32.2701 5.59503 31.955 6.22503 31.3251C6.85503 30.6951 7.17002 29.84 7.17002 28.76V20.0751H14.73C18.18 20.0751 20.865 19.205 22.785 17.465C24.705 15.725 25.665 13.295 25.665 10.175C25.665 8.99652 25.528 7.91643 25.2541 6.9348C26.1816 8.301 26.665 10.0289 26.665 12.175C26.665 15.0754 25.7821 17.2119 24.1135 18.7241C22.4313 20.2486 20.0156 21.0751 16.73 21.0751H8.17002V30.76C8.17002 31.6349 7.92181 32.2141 7.51792 32.6179C7.11402 33.0218 6.53485 33.2701 5.66002 33.2701C4.7852 33.2701 4.20603 33.0218 3.80213 32.6179C3.69794 32.5138 3.60413 32.3979 3.52225 32.2683ZM19.095 10.22C19.095 13.25 17.34 14.765 13.83 14.765H9.17002V7.63005H15.83C16.9895 7.63005 17.9575 7.79702 18.734 8.13095C18.9747 8.72241 19.095 9.41878 19.095 10.22ZM17.8169 6.81126C17.2008 6.68737 16.5354 6.63005 15.83 6.63005H8.17002V14.765H7.17002V5.63005H13.83C15.6106 5.63005 16.9396 6.02379 17.8169 6.81126Z" fill="#333333"/>
<path fill-rule="evenodd" clip-rule="evenodd" d="M48.9273 13.6074C48.047 12.421 46.9295 11.4719 45.5747 10.76C43.8047 9.83005 41.7497 9.36505 39.4097 9.36505C37.0697 9.36505 35.0147 9.83005 33.2447 10.76C31.4747 11.69 30.1097 13.0251 29.1497 14.765C28.1897 16.475 27.7097 18.5 27.7097 20.84C27.7097 23.18 28.1897 25.2201 29.1497 26.9601C29.8484 28.2046 30.7616 29.2505 31.8893 30.0977C32.77 31.2737 33.8885 32.2295 35.2447 32.965C37.0147 33.8951 39.0697 34.3601 41.4097 34.3601C43.7497 34.3601 45.8047 33.8951 47.5747 32.965C49.3447 32.0051 50.7097 30.6701 51.6697 28.9601C52.6297 27.2201 53.1097 25.18 53.1097 22.84C53.1097 20.5 52.6297 18.475 51.6697 16.765C50.9705 15.4976 50.0563 14.4451 48.9273 13.6074ZM35.1519 31.7533C36.4472 32.1578 37.8665 32.3601 39.4097 32.3601C41.7497 32.3601 43.8047 31.8951 45.5747 30.965C47.3447 30.0051 48.7097 28.6701 49.6697 26.9601C50.6297 25.2201 51.1097 23.18 51.1097 20.84C51.1097 19.3813 50.9232 18.0449 50.5501 16.8309C50.6344 16.967 50.7157 17.106 50.7941 17.2481L50.7977 17.2546C51.6589 18.7886 52.1097 20.6384 52.1097 22.84C52.1097 25.0397 51.6597 26.9066 50.7959 28.4738C49.932 30.0113 48.7086 31.2112 47.1037 32.0829C45.501 32.9236 43.6126 33.3601 41.4097 33.3601C39.2068 33.3601 37.3183 32.9236 35.7156 32.0828C35.5222 31.9778 35.3343 31.8679 35.1519 31.7533ZM44.3597 20.84C44.3597 25.07 42.7097 27.1851 39.4097 27.1851C38.5569 27.1851 37.8143 27.0438 37.1818 26.7613C36.7004 25.7627 36.4597 24.4557 36.4597 22.84C36.4597 18.6101 38.1097 16.495 41.4097 16.495C42.2485 16.495 42.9829 16.6412 43.613 16.9334C44.1108 17.9266 44.3597 19.2288 44.3597 20.84ZM35.7517 25.6671C34.8904 24.6101 34.4597 23.0011 34.4597 20.84C34.4597 16.6101 36.1097 14.495 39.4097 14.495C40.7363 14.495 41.8019 14.8605 42.6064 15.5914C42.2243 15.5268 41.8248 15.495 41.4097 15.495C39.5302 15.495 37.9668 16.11 36.9088 17.4662C35.8875 18.7752 35.4597 20.6225 35.4597 22.84C35.4597 23.8674 35.5515 24.8154 35.7517 25.6671Z" fill="#333333"/>
<path fill-rule="evenodd" clip-rule="evenodd" d="M82.4698 9.36505C84.8698 9.36505 86.7148 10.1 88.0048 11.57C88.2265 11.8175 88.4292 12.0925 88.6128 12.3949C89.1324 12.713 89.5964 13.1047 90.0048 13.57C91.2948 15.01 91.9398 17.3801 91.9398 20.68V31.0751C91.9398 32.125 91.6248 32.9201 90.9948 33.4601C90.3648 34.0001 89.5548 34.2701 88.5648 34.2701C87.6048 34.2701 86.7948 34.0001 86.1348 33.4601C85.7039 33.1075 85.4137 32.6463 85.2641 32.0764C84.8485 31.9414 84.4721 31.736 84.1348 31.4601C83.4748 30.92 83.1448 30.125 83.1448 29.0751V18.59C83.1448 17.8677 83.0806 17.2548 82.9523 16.7514C82.701 16.7005 82.4269 16.675 82.1298 16.675C80.8698 16.675 79.8648 17.1101 79.1148 17.98C78.3648 18.85 77.9898 20.065 77.9898 21.625V31.0751C77.9898 32.125 77.6748 32.9201 77.0448 33.4601C76.4148 34.0001 75.6048 34.2701 74.6148 34.2701C73.6548 34.2701 72.8448 34.0001 72.1848 33.4601C71.7539 33.1075 71.4637 32.6463 71.3141 32.0764C70.8985 31.9414 70.5221 31.736 70.1848 31.4601C69.5248 30.92 69.1948 30.125 69.1948 29.0751V18.59C69.1948 17.8677 69.1306 17.2548 69.0023 16.7514C68.751 16.7005 68.4769 16.675 68.1798 16.675C66.9198 16.675 65.9148 17.1101 65.1648 17.98C64.4148 18.85 64.0398 20.065 64.0398 21.625V31.0751C64.0398 32.125 63.7098 32.9201 63.0498 33.4601C62.4198 34.0001 61.6248 34.2701 60.6648 34.2701C59.7048 34.2701 58.8948 34.0001 58.2348 33.4601C57.8039 33.1075 57.5137 32.6463 57.3641 32.0764C56.9485 31.9414 56.5721 31.736 56.2348 31.4601C55.5748 30.92 55.2448 30.125 55.2448 29.0751V12.5601C55.2448 11.57 55.5748 10.805 56.2348 10.265C56.9248 9.72505 57.7498 9.45505 58.7098 9.45505C59.6098 9.45505 60.3598 9.72505 60.9598 10.265C61.3684 10.6123 61.6378 11.057 61.7682 11.599C62.0454 11.6806 62.3034 11.7969 62.5421 11.9479C63.1392 11.2513 63.8417 10.6903 64.6498 10.265C65.8198 9.66505 67.1398 9.36505 68.6098 9.36505C70.1998 9.36505 71.5348 9.69505 72.6148 10.355C73.7248 10.9851 74.5798 12.0201 75.1798 13.46C75.8698 12.2 76.8448 11.21 78.1048 10.4901C79.3948 9.74005 80.8498 9.36505 82.4698 9.36505ZM61.9392 12.7518C61.9131 12.7367 61.8867 12.7222 61.8598 12.7082V12.875C61.886 12.8336 61.9124 12.7925 61.9392 12.7518ZM58.5109 32.2677C58.6087 32.4364 58.7297 32.573 58.868 32.6861C59.3269 33.0615 59.9049 33.2701 60.6648 33.2701C61.4257 33.2701 61.9782 33.0615 62.399 32.7008L62.4077 32.6933L62.4166 32.6861C62.7913 32.3795 63.0398 31.9013 63.0398 31.0751V21.625C63.0398 19.9116 63.4525 18.4347 64.4074 17.3271C65.3672 16.2138 66.6606 15.675 68.1798 15.675C68.2947 15.675 68.4085 15.6783 68.5209 15.685C68.4915 15.6467 68.4611 15.6101 68.4298 15.5751C67.9498 14.975 67.1998 14.675 66.1798 14.675C64.9198 14.675 63.9148 15.11 63.1648 15.9801C62.4148 16.85 62.0398 18.065 62.0398 19.625V29.0751C62.0398 30.125 61.7098 30.92 61.0498 31.4601C60.4198 32.0001 59.6248 32.2701 58.6648 32.2701C58.6131 32.2701 58.5618 32.2693 58.5109 32.2677ZM72.4609 32.2677C72.5587 32.4364 72.6797 32.573 72.818 32.6861C73.2769 33.0615 73.8549 33.2701 74.6148 33.2701C75.4144 33.2701 75.9788 33.0566 76.394 32.7008C76.7459 32.3992 76.9898 31.9167 76.9898 31.0751V21.625C76.9898 19.9116 77.4025 18.4347 78.3574 17.3271C79.3172 16.2138 80.6106 15.675 82.1298 15.675C82.2447 15.675 82.3585 15.6783 82.4709 15.685C82.4415 15.6467 82.4111 15.6101 82.3798 15.5751C81.8998 14.975 81.1498 14.675 80.1298 14.675C78.8698 14.675 77.8648 15.11 77.1148 15.9801C76.3648 16.85 75.9898 18.065 75.9898 19.625V29.0751C75.9898 30.125 75.6748 30.92 75.0448 31.4601C74.4148 32.0001 73.6048 32.2701 72.6148 32.2701C72.5631 32.2701 72.5118 32.2693 72.4609 32.2677ZM86.4109 32.2677C86.5087 32.4364 86.6297 32.573 86.768 32.6861C87.2269 33.0615 87.8049 33.2701 88.5648 33.2701C89.3644 33.2701 89.9288 33.0566 90.344 32.7008C90.6959 32.3992 90.9398 31.9167 90.9398 31.0751V20.68C90.9398 17.693 90.39 15.6993 89.4748 14.4976C89.7848 15.6683 89.9398 17.0624 89.9398 18.68V29.0751C89.9398 30.125 89.6248 30.92 88.9948 31.4601C88.3648 32.0001 87.5548 32.2701 86.5648 32.2701C86.5131 32.2701 86.4618 32.2693 86.4109 32.2677Z" fill="#333333"/>
<path fill-rule="evenodd" clip-rule="evenodd" d="M115.197 13.6075C114.317 12.421 113.199 11.4719 111.844 10.76C110.074 9.83005 108.019 9.36505 105.679 9.36505C103.339 9.36505 101.284 9.83005 99.5142 10.76C97.7442 11.69 96.3792 13.0251 95.4192 14.765C94.4592 16.475 93.9792 18.5 93.9792 20.84C93.9792 23.18 94.4592 25.2201 95.4192 26.9601C96.1179 28.2046 97.0311 29.2505 98.1588 30.0977C99.0395 31.2737 100.158 32.2295 101.514 32.965C103.284 33.8951 105.339 34.3601 107.679 34.3601C110.019 34.3601 112.074 33.8951 113.844 32.965C115.614 32.0051 116.979 30.6701 117.939 28.9601C118.899 27.2201 119.379 25.18 119.379 22.84C119.379 20.5 118.899 18.475 117.939 16.765C117.24 15.4976 116.326 14.4451 115.197 13.6075ZM101.421 31.7533C102.717 32.1578 104.136 32.3601 105.679 32.3601C108.019 32.3601 110.074 31.8951 111.844 30.965C113.614 30.0051 114.979 28.6701 115.939 26.9601C116.899 25.2201 117.379 23.18 117.379 20.84C117.379 19.3812 117.193 18.0449 116.82 16.8309C116.904 16.9669 116.985 17.106 117.064 17.2481L117.067 17.2546C117.928 18.7886 118.379 20.6384 118.379 22.84C118.379 25.0397 117.929 26.9066 117.065 28.4738C116.202 30.0112 114.978 31.2111 113.373 32.0828C111.771 32.9236 109.882 33.3601 107.679 33.3601C105.476 33.3601 103.588 32.9236 101.985 32.0828C101.792 31.9778 101.604 31.8679 101.421 31.7533ZM110.629 20.84C110.629 25.07 108.979 27.1851 105.679 27.1851C104.826 27.1851 104.084 27.0438 103.451 26.7613C102.97 25.7627 102.729 24.4557 102.729 22.84C102.729 18.6101 104.379 16.495 107.679 16.495C108.518 16.495 109.252 16.6412 109.883 16.9334C110.38 17.9266 110.629 19.2288 110.629 20.84ZM102.021 25.6671C101.16 24.6101 100.729 23.0011 100.729 20.84C100.729 16.6101 102.379 14.495 105.679 14.495C107.006 14.495 108.071 14.8605 108.876 15.5914C108.494 15.5268 108.094 15.495 107.679 15.495C105.8 15.495 104.236 16.11 103.178 17.4662C102.157 18.7752 101.729 20.6225 101.729 22.84C101.729 23.8674 101.821 24.8154 102.021 25.6671Z" fill="#333333"/>
<path fill-rule="evenodd" clip-rule="evenodd" d="M169.25 13.6075C168.369 12.421 167.252 11.4719 165.897 10.76C164.127 9.83005 162.072 9.36505 159.732 9.36505C157.392 9.36505 155.337 9.83005 153.567 10.76C151.797 11.69 150.432 13.0251 149.472 14.765C148.512 16.475 148.032 18.5 148.032 20.84C148.032 23.18 148.512 25.2201 149.472 26.9601C150.171 28.2046 151.084 29.2505 152.212 30.0977C153.092 31.2737 154.211 32.2295 155.567 32.965C157.337 33.8951 159.392 34.3601 161.732 34.3601C164.072 34.3601 166.127 33.8951 167.897 32.965C169.667 32.0051 171.032 30.6701 171.992 28.9601C172.952 27.2201 173.432 25.18 173.432 22.84C173.432 20.5 172.952 18.475 171.992 16.765C171.293 15.4976 170.379 14.4451 169.25 13.6075ZM155.474 31.7533C156.769 32.1578 158.189 32.3601 159.732 32.3601C162.072 32.3601 164.127 31.8951 165.897 30.965C167.667 30.0051 169.032 28.6701 169.992 26.9601C170.952 25.2201 171.432 23.18 171.432 20.84C171.432 19.3812 171.245 18.0449 170.872 16.8309C170.957 16.9669 171.038 17.106 171.116 17.2481L171.12 17.2546C171.981 18.7886 172.432 20.6384 172.432 22.84C172.432 25.04 171.982 26.9072 171.118 28.4745C170.254 30.0115 169.031 31.2112 167.426 32.0827C165.824 32.9236 163.935 33.3601 161.732 33.3601C159.529 33.3601 157.64 32.9236 156.038 32.0827C155.844 31.9777 155.656 31.8679 155.474 31.7533ZM164.682 20.84C164.682 25.07 163.032 27.1851 159.732 27.1851C158.879 27.1851 158.137 27.0438 157.504 26.7613C157.023 25.7627 156.782 24.4557 156.782 22.84C156.782 18.6101 158.432 16.495 161.732 16.495C162.571 16.495 163.305 16.6412 163.935 16.9334C164.433 17.9266 164.682 19.2288 164.682 20.84ZM156.074 25.6671C155.213 24.6101 154.782 23.0011 154.782 20.84C154.782 16.6101 156.432 14.495 159.732 14.495C161.059 14.495 162.124 14.8605 162.929 15.5914C162.547 15.5268 162.147 15.495 161.732 15.495C159.852 15.495 158.289 16.11 157.231 17.4662C156.21 18.7752 155.782 20.6225 155.782 22.84C155.782 23.8675 155.874 24.8154 156.074 25.6671Z" fill="#333333"/>
<path fill-rule="evenodd" clip-rule="evenodd" d="M188.752 9.45505C189.652 9.39505 190.357 9.60505 190.867 10.085C191.27 10.4204 191.522 10.8891 191.625 11.4911C192.121 11.5749 192.535 11.7729 192.867 12.085C193.407 12.535 193.677 13.225 193.677 14.1551C193.677 14.297 193.672 14.4337 193.662 14.5651C194.615 12.9225 195.943 11.6541 197.644 10.76C199.414 9.83005 201.469 9.36505 203.809 9.36505C206.149 9.36505 208.204 9.83005 209.974 10.76C211.329 11.4719 212.446 12.421 213.327 13.6075C214.456 14.4451 215.37 15.4976 216.069 16.765C217.029 18.475 217.509 20.5 217.509 22.84C217.509 25.18 217.029 27.2201 216.069 28.9601C215.109 30.6701 213.744 32.0051 211.974 32.965C210.204 33.8951 208.149 34.3601 205.809 34.3601C203.469 34.3601 201.414 33.8951 199.644 32.965C198.288 32.2295 197.169 31.2737 196.289 30.0977C195.161 29.2505 194.248 28.2046 193.549 26.9601C192.589 25.2201 192.109 23.18 192.109 20.84C192.109 19.2579 192.329 17.8197 192.767 16.5255C192.266 16.9096 191.474 17.1545 190.392 17.26L189.042 17.3951C187.392 17.5751 186.192 18.1151 185.442 19.0151C184.722 19.9151 184.362 21.07 184.362 22.48V31.0751C184.362 32.125 184.032 32.9201 183.372 33.4601C182.742 34.0001 181.947 34.2701 180.987 34.2701C179.997 34.2701 179.172 34.0001 178.512 33.4601C178.103 33.1095 177.827 32.6514 177.683 32.0859C177.248 31.9511 176.857 31.7425 176.512 31.4601C175.882 30.92 175.567 30.125 175.567 29.0751V12.5601C175.567 11.57 175.897 10.805 176.557 10.265C177.217 9.72505 178.012 9.45505 178.942 9.45505C179.842 9.45505 180.592 9.72505 181.192 10.265C181.601 10.6123 181.87 11.057 182 11.599C182.359 11.7045 182.685 11.8679 182.979 12.0891C183.411 11.5245 183.925 11.0514 184.522 10.67C185.632 9.98005 186.832 9.59005 188.122 9.50005L188.752 9.45505ZM182.432 12.9311C182.327 12.846 182.214 12.7715 182.092 12.7082V13.64C182.196 13.3927 182.309 13.1564 182.432 12.9311ZM178.815 32.2673C178.908 32.4409 179.024 32.5799 179.154 32.6935C179.607 33.0598 180.194 33.2701 180.987 33.2701C181.748 33.2701 182.3 33.0615 182.721 32.7008L182.73 32.6933L182.739 32.6861C183.114 32.3795 183.362 31.9013 183.362 31.0751V22.48C183.362 20.8952 183.77 19.5046 184.661 18.3904L184.667 18.3825L184.674 18.3749C185.648 17.2058 187.134 16.5973 188.934 16.4009L188.943 16.4L190.295 16.2648C191.462 16.1509 192.023 15.8804 192.25 15.6529C192.471 15.4317 192.677 15.0013 192.677 14.1551C192.677 13.4195 192.47 13.0563 192.227 12.8533L192.204 12.8339L192.182 12.8132C192.054 12.6931 191.888 12.5905 191.665 12.5244C191.611 13.3299 191.375 13.9418 190.957 14.36C190.477 14.84 189.622 15.14 188.392 15.26L187.042 15.3951C186.3 15.476 185.648 15.6299 185.088 15.8567C185.063 15.9124 185.038 15.9689 185.014 16.0262L184.801 15.9832C184.248 16.2474 183.795 16.5913 183.442 17.0151C182.722 17.9151 182.362 19.07 182.362 20.48V29.0751C182.362 30.125 182.032 30.92 181.372 31.4601C180.742 32.0001 179.947 32.2701 178.987 32.2701C178.929 32.2701 178.872 32.2691 178.815 32.2673ZM199.551 31.7533C199.734 31.8679 199.921 31.9777 200.115 32.0827C201.718 32.9236 203.606 33.3601 205.809 33.3601C208.012 33.3601 209.901 32.9236 211.503 32.0827C213.108 31.2112 214.331 30.0115 215.195 28.4745C216.059 26.9072 216.509 25.04 216.509 22.84C216.509 20.6384 216.058 18.7886 215.197 17.2546L215.194 17.2481C215.115 17.106 215.034 16.9669 214.949 16.8309C215.323 18.0449 215.509 19.3812 215.509 20.84C215.509 23.18 215.029 25.2201 214.069 26.9601C213.109 28.6701 211.744 30.0051 209.974 30.965C208.204 31.8951 206.149 32.3601 203.809 32.3601C202.266 32.3601 200.847 32.1578 199.551 31.7533ZM208.759 20.84C208.759 25.07 207.109 27.1851 203.809 27.1851C202.956 27.1851 202.214 27.0438 201.581 26.7613C201.1 25.7627 200.859 24.4557 200.859 22.84C200.859 18.6101 202.509 16.495 205.809 16.495C206.648 16.495 207.382 16.6412 208.012 16.9334C208.51 17.9266 208.759 19.2288 208.759 20.84ZM207.006 15.5914C206.624 15.5268 206.224 15.495 205.809 15.495C203.93 15.495 202.366 16.11 201.308 17.4662C200.287 18.7752 199.859 20.6225 199.859 22.84C199.859 23.8675 199.951 24.8154 200.151 25.6671C199.29 24.6101 198.859 23.0011 198.859 20.84C198.859 16.6101 200.509 14.495 203.809 14.495C205.136 14.495 206.201 14.8605 207.006 15.5914Z" fill="#333333"/>
</svg>
