<svg width="450" height="371" viewBox="0 0 450 371" fill="none" xmlns="http://www.w3.org/2000/svg">
<g clip-path="url(#clip0)">
<path opacity="0.18" d="M333.015 64.3698C319.279 48.7449 308.645 30.0917 292.228 17.3403C266.44 -2.7311 229.326 -4.68808 199.172 7.92082C169.019 20.5297 145.529 45.9457 130.046 74.7244C121.902 89.8662 115.505 106.383 103.571 118.756C93.4829 129.21 80.2238 135.88 67.652 143.144C47.3824 154.824 27.8622 168.938 14.7455 188.304C1.62874 207.669 -4.23601 233.104 4.14928 254.928C9.80346 269.654 21.1923 281.372 32.8599 291.98C46.5897 304.453 61.3476 316.133 78.3783 323.564C99.7007 332.81 123.37 334.798 146.581 335.74C187.731 337.401 228.946 336.159 269.921 332.024C303.474 328.643 338.043 322.871 366.116 304.186C405.442 278.021 425.717 230.081 430.282 183.07C432.139 164.269 431.669 144.73 424.411 127.284C407.052 85.5559 360.214 95.3161 333.015 64.3698Z" fill="#6C63FF"/>
<path d="M166.498 148.148C166.498 148.148 150.935 145.411 146.575 156.199C142.215 166.987 146.575 204.244 146.575 204.244L204.641 245.353L166.498 148.148Z" fill="#3F3D56"/>
<path d="M239.662 314.077L217.138 320.747C215.566 321.208 213.876 321.028 212.436 320.245C210.997 319.463 209.926 318.142 209.459 316.572C208.997 315.001 209.178 313.31 209.96 311.871C210.742 310.432 212.063 309.361 213.633 308.893L236.126 302.217C237.697 301.756 239.386 301.935 240.826 302.716C242.265 303.497 243.336 304.816 243.805 306.385C244.271 307.954 244.097 309.645 243.321 311.086C242.544 312.527 241.229 313.603 239.662 314.077Z" fill="#6C63FF"/>
<path d="M238.392 338.718C244.125 338.718 248.772 334.071 248.772 328.339C248.772 322.607 244.125 317.96 238.392 317.96C232.66 317.96 228.013 322.607 228.013 328.339C228.013 334.071 232.66 338.718 238.392 338.718Z" fill="#25233A"/>
<path d="M236.522 334.476C239.388 334.476 241.712 332.153 241.712 329.287C241.712 326.42 239.388 324.097 236.522 324.097C233.656 324.097 231.332 326.42 231.332 329.287C231.332 332.153 233.656 334.476 236.522 334.476Z" fill="#3F3D56"/>
<path d="M196.782 328.463C202.514 328.463 207.161 323.816 207.161 318.083C207.161 312.351 202.514 307.704 196.782 307.704C191.049 307.704 186.402 312.351 186.402 318.083C186.402 323.816 191.049 328.463 196.782 328.463Z" fill="#25233A"/>
<path d="M200.107 319.019C200.107 320.045 199.803 321.048 199.233 321.902C198.662 322.755 197.852 323.421 196.904 323.813C195.955 324.206 194.912 324.309 193.905 324.109C192.898 323.908 191.974 323.414 191.248 322.688C190.522 321.962 190.028 321.038 189.828 320.031C189.627 319.024 189.73 317.981 190.123 317.033C190.516 316.084 191.181 315.274 192.034 314.704C192.888 314.133 193.891 313.829 194.918 313.829C196.294 313.829 197.614 314.376 198.587 315.349C199.561 316.322 200.107 317.642 200.107 319.019Z" fill="url(#paint0_linear)"/>
<path d="M193.778 342.657C199.51 342.657 204.158 338.01 204.158 332.278C204.158 326.545 199.51 321.898 193.778 321.898C188.046 321.898 183.399 326.545 183.399 332.278C183.399 338.01 188.046 342.657 193.778 342.657Z" fill="#25233A"/>
<path d="M201.978 332.625C201.978 333.651 201.673 334.654 201.103 335.508C200.533 336.361 199.722 337.026 198.774 337.419C197.826 337.812 196.782 337.915 195.775 337.715C194.769 337.514 193.844 337.02 193.118 336.294C192.392 335.568 191.898 334.644 191.698 333.637C191.498 332.63 191.6 331.587 191.993 330.639C192.386 329.69 193.051 328.88 193.905 328.31C194.758 327.739 195.761 327.435 196.788 327.435C198.164 327.435 199.484 327.982 200.458 328.955C201.431 329.928 201.978 331.248 201.978 332.625Z" fill="#3F3D56"/>
<path d="M240.479 324.258L193.01 314.677C191.406 314.349 189.996 313.398 189.091 312.033C188.186 310.668 187.858 309 188.18 307.394C188.508 305.791 189.458 304.383 190.821 303.478C192.185 302.573 193.851 302.244 195.456 302.564L242.925 312.126C244.53 312.454 245.939 313.405 246.845 314.77C247.75 316.135 248.078 317.803 247.756 319.409C247.432 321.015 246.484 322.428 245.12 323.337C243.756 324.246 242.087 324.577 240.479 324.258Z" fill="#6C63FF"/>
<path d="M211.218 249.682H224.179V304.273C224.179 305.991 223.497 307.639 222.282 308.854C221.067 310.068 219.42 310.751 217.702 310.751C215.984 310.751 214.336 310.068 213.121 308.854C211.906 307.639 211.224 305.991 211.224 304.273V249.682H211.218Z" fill="#6C63FF"/>
<path d="M215.868 320.672L193.351 327.354C191.778 327.818 190.086 327.638 188.645 326.856C187.205 326.073 186.133 324.752 185.665 323.18C185.204 321.609 185.384 319.918 186.166 318.479C186.949 317.039 188.269 315.969 189.839 315.501L212.357 308.837C213.928 308.376 215.618 308.555 217.057 309.336C218.496 310.117 219.567 311.436 220.036 313.005C220.494 314.575 220.313 316.261 219.532 317.698C218.751 319.134 217.434 320.203 215.868 320.672Z" fill="#6C63FF"/>
<path d="M219.597 320.009L217.119 320.746C216.381 320.965 215.608 321.042 214.84 320.976L215.875 320.672C216.594 320.462 217.268 320.12 217.863 319.663L219.597 320.009Z" fill="url(#paint1_linear)"/>
<path d="M244.065 308.156C244.064 309.579 243.569 310.958 242.665 312.058L222.972 308.076C223.467 307.401 223.825 306.635 224.025 305.821L236.157 302.229C236.938 302.004 237.757 301.935 238.565 302.026C239.373 302.117 240.156 302.366 240.868 302.759C241.58 303.153 242.207 303.682 242.714 304.318C243.221 304.954 243.598 305.684 243.824 306.465C243.981 307.015 244.062 307.584 244.065 308.156Z" fill="url(#paint2_linear)"/>
<path opacity="0.31" d="M211.385 305.747C211.273 305.264 211.217 304.769 211.218 304.273V249.682H215.72V308.515C215.675 308.804 215.69 309.099 215.763 309.382C215.081 309.088 214.35 308.927 213.608 308.905C213.084 308.868 212.559 308.868 212.035 308.905L212.357 308.813C212.555 308.775 211.645 306.862 211.385 305.747Z" fill="url(#paint3_linear)"/>
<path opacity="0.31" d="M244.647 323.589C243.743 324.09 242.727 324.352 241.693 324.351C241.277 324.35 240.862 324.308 240.455 324.227L219.572 320.009L217.832 319.663C217.237 320.12 216.563 320.462 215.844 320.672L214.809 320.976L193.351 327.354C191.778 327.818 190.086 327.638 188.645 326.856C187.205 326.073 186.133 324.752 185.665 323.18C186.567 324.018 187.733 324.514 188.962 324.584C190.191 324.654 191.406 324.294 192.397 323.564C195.017 321.75 205.446 319.025 211.354 317.576C212.72 317.249 213.963 316.533 214.93 315.514C215.898 314.494 216.548 313.217 216.804 311.835C216.818 311.668 216.843 311.503 216.878 311.339C217.863 312.405 219.671 313.6 222.941 314.615C230.992 317.093 244.065 318.734 244.065 318.734C244.065 318.734 246.425 321.05 244.647 323.589Z" fill="url(#paint4_linear)"/>
<path d="M246.889 321.508C246.482 322.146 245.959 322.703 245.347 323.149C245.762 322.722 246.295 322.152 246.889 321.508Z" fill="url(#paint5_linear)"/>
<path d="M211.385 305.747C211.639 306.845 212.177 307.857 212.945 308.683C212.753 308.72 212.555 308.769 212.357 308.825L192.837 314.603C191.385 314.234 190.116 313.352 189.265 312.12C188.414 310.888 188.038 309.389 188.208 307.901C188.377 306.412 189.08 305.036 190.186 304.026C191.292 303.017 192.727 302.442 194.224 302.409C194.64 302.41 195.055 302.452 195.463 302.533L211.385 305.747Z" fill="url(#paint6_linear)"/>
<path d="M241.458 42.7872C241.458 42.7872 241.204 23.5395 225.777 25.1992C210.351 26.8589 211.533 20.4864 204.944 21.1862C198.355 21.886 190.7 28.3886 192.899 36.4209C195.097 44.4532 187.084 46.2491 181.82 52.343C176.556 58.4369 183.058 63.4222 191.926 69.3799C200.795 75.3375 191.375 73.7955 196.633 83.215C201.891 92.6345 219.69 80.6015 219.69 80.6015L241.458 42.7872Z" fill="#3F3D56"/>
<path d="M115.623 364.828L126.566 365.2V277.811C126.566 277.811 127.117 255.212 148.446 252.946C169.774 250.679 363.205 222.681 363.205 222.681C363.205 222.681 370.872 221.869 375.288 236.572C379.704 251.274 384.001 309.085 384.001 309.085L443.373 317.08C443.373 317.08 444.94 214.958 423.5 209.322C402.06 203.687 121.673 232.404 121.673 232.404C121.673 232.404 100.877 340.867 115.623 364.828Z" fill="#6C63FF"/>
<path d="M115.623 364.828L126.566 365.2V277.811C126.566 277.811 127.117 255.212 148.446 252.946C169.774 250.679 363.205 222.681 363.205 222.681C363.205 222.681 370.872 221.869 375.288 236.572C379.704 251.274 384.001 309.085 384.001 309.085L443.373 317.08C443.373 317.08 444.94 214.958 423.5 209.322C402.06 203.687 121.673 232.404 121.673 232.404C121.673 232.404 100.877 340.867 115.623 364.828Z" fill="url(#paint7_linear)"/>
<path d="M57.8795 243.13C57.8795 243.13 63.2426 213.453 100.964 205.675L367.237 175.168C367.237 175.168 393.378 174.085 405.336 181.324C417.295 188.564 434.363 194.565 441.361 227.325C448.359 260.086 450.031 316.052 450.031 316.052L443.411 317.08C443.411 317.08 433.75 215.738 423.513 209.323C413.276 202.907 136.493 242.269 136.493 242.269C136.493 242.269 117.295 246.09 115.623 274.541C113.951 302.991 115.623 364.822 115.623 364.822L57.8795 341.512V243.13Z" fill="#6C63FF"/>
<path opacity="0.19" d="M331.826 186.588C318.046 184.792 304.155 183.492 290.271 184.018C279.836 184.427 269.469 185.876 259.12 187.319L167.854 200.083C166.306 200.299 164.541 200.652 163.767 202.015C162.281 204.616 165.774 207.18 168.604 208.171C198.949 218.81 231.369 229.586 262.607 222C276.888 218.531 290.153 211.329 304.639 208.827C319.124 206.325 333.993 208.629 348.448 206.269C362.035 204.052 374.972 197.754 388.745 197.692C392.969 197.692 397.316 198.237 401.323 196.899C405.33 195.562 408.872 191.474 407.764 187.399C394.833 186.947 380.317 184.557 367.633 187.152C355.08 189.716 344.397 186.588 331.826 186.588Z" fill="url(#paint8_linear)"/>
<path d="M249.292 202.145L249.824 204.182C249.824 204.182 265.592 213.986 265.493 214.302C265.394 214.617 330.897 198.652 330.897 198.652L332.42 194.069L249.292 202.145Z" fill="#6C63FF"/>
<path d="M249.292 202.145L249.824 204.182C249.824 204.182 265.592 213.986 265.493 214.302C265.394 214.617 330.897 198.652 330.897 198.652L332.42 194.069L249.292 202.145Z" fill="url(#paint9_linear)"/>
<path d="M250.766 202.145L308.385 189.158L332.408 194.069L266.948 210.536L250.766 202.145Z" fill="#6C63FF"/>
<path d="M250.766 202.145L308.385 189.158L332.408 194.069L266.948 210.536L250.766 202.145Z" fill="#504BA1"/>
<path d="M232.627 212.419L246.307 212.877C246.307 212.877 249.781 213.082 250.679 210.443C251.577 207.805 245.105 202.238 244.412 202.132C243.718 202.027 225.715 206.808 228.31 211.589L232.627 212.419Z" fill="#6C63FF"/>
<path d="M232.627 212.419L246.307 212.877C246.307 212.877 249.781 213.082 250.679 210.443C251.577 207.805 245.105 202.238 244.412 202.132C243.718 202.027 225.715 206.808 228.31 211.589L232.627 212.419Z" fill="#413E7C"/>
<path d="M74.5014 347.172L67.844 367.386C48.5343 374.241 32.1167 367.386 32.1167 367.386L27.3419 346.187C27.3419 346.187 51.4264 354.17 74.5014 347.172Z" fill="#6C63FF"/>
<path d="M74.5014 347.172L67.844 367.386C48.5343 374.241 32.1167 367.386 32.1167 367.386L27.3419 346.187C27.3419 346.187 51.4264 354.17 74.5014 347.172Z" fill="url(#paint10_linear)"/>
<path d="M82.0507 328.351L79.9141 344.329L74.5014 347.166C51.445 354.164 27.3419 346.187 27.3419 346.187L23.1864 343.091L21.248 328.351H82.0507Z" fill="#6C63FF"/>
<path d="M82.0507 328.351L79.9141 344.329L74.5014 347.166C51.445 354.164 27.3419 346.187 27.3419 346.187L23.1864 343.091L21.248 328.351H82.0507Z" fill="url(#paint11_linear)"/>
<path d="M51.6432 333.82C68.4299 333.82 82.0383 331.372 82.0383 328.351C82.0383 325.331 68.4299 322.883 51.6432 322.883C34.8564 322.883 21.248 325.331 21.248 328.351C21.248 331.372 34.8564 333.82 51.6432 333.82Z" fill="#6C63FF"/>
<path d="M51.6432 333.82C68.4299 333.82 82.0383 331.372 82.0383 328.351C82.0383 325.331 68.4299 322.883 51.6432 322.883C34.8564 322.883 21.248 325.331 21.248 328.351C21.248 331.372 34.8564 333.82 51.6432 333.82Z" fill="url(#paint12_linear)"/>
<path d="M37.1827 206.337C34.1976 204.925 30.9897 203.86 28.4072 201.798C23.2051 197.605 21.886 190.384 20.2573 183.907C18.6285 177.429 15.4763 170.307 9.05418 168.449C6.6513 167.761 3.8335 168.034 2.00657 169.743C0.0805591 171.545 -0.309598 174.506 0.216804 177.119C0.743207 179.732 2.02515 182.073 3.01603 184.551C5.32989 190.304 6.03423 196.579 5.05352 202.702C4.24224 207.725 2.30384 212.815 3.54862 217.739C5.66043 226.093 16.1823 230.992 16.4734 239.6C16.6715 245.409 11.8906 250.784 12.9743 256.501C13.7732 260.73 17.6686 264.031 17.8792 268.329C18.1145 273.203 13.5069 277.328 13.7299 282.201C13.9528 287.075 18.8205 290.333 21.9975 294.166C24.6609 297.386 26.2446 301.361 26.5246 305.53C26.6918 308.131 26.3573 310.825 27.2058 313.29C27.8251 315.092 29.0637 316.622 30.0236 318.245C31.0826 319.997 31.8815 321.892 33.1572 323.515C34.7611 325.536 36.9346 327.03 39.3967 327.803C41.8588 328.576 44.4961 328.592 46.9676 327.85C47.9522 321.372 47.0914 314.764 47.3639 308.218C47.9027 295.535 52.7023 282.753 49.6305 270.441C48.5034 265.926 46.3359 261.641 45.9519 257.008C45.6113 252.871 46.7136 248.772 47.4816 244.691C49.067 236.262 49.0422 227.548 48.3919 219.027C47.8779 212.264 43.1217 209.149 37.1827 206.337Z" fill="#6C63FF"/>
<path d="M56.164 239.557C56.1145 245.211 57.4026 251.057 55.5943 256.426C54.2256 260.495 51.2158 263.827 49.6614 267.828C46.0756 277.061 50.9 287.416 49.9153 297.275C49.5066 301.338 48.1131 305.239 47.2337 309.228C46.1415 314.277 45.8738 319.47 46.441 324.605C46.383 325.54 46.6642 326.464 47.2331 327.208C47.8019 327.952 48.6202 328.466 49.5375 328.655C52.5719 329.812 55.7152 330.661 58.9199 331.188C57.8365 325.21 58.9776 319.042 62.1278 313.848C67.0389 305.797 76.5822 300.372 78.3596 291.125C79.5611 284.864 76.7618 278.51 76.96 272.138C77.1027 267.898 78.5615 263.807 81.1341 260.433C83.4441 257.423 86.5715 255.095 88.7205 251.974C93.8854 244.449 92.2752 234.392 90.7394 225.393C89.2035 216.395 88.3117 206.04 94.3808 199.222C96.3007 197.067 98.8026 195.45 100.543 193.146C104.42 188.012 103.441 180.104 98.9327 175.515C94.4242 170.926 87.166 169.657 81.035 171.675C78.4488 172.437 76.1662 173.99 74.5076 176.116C71.4111 180.513 72.6497 186.52 73.9626 191.747C75.1083 196.286 76.0311 201.526 74.4642 206.102C73.2938 209.508 70.3273 211.354 67.8068 213.726C64.2341 217.031 61.3624 221.021 59.3623 225.459C57.3622 229.896 56.2746 234.691 56.164 239.557Z" fill="#6C63FF"/>
<path d="M49.7667 289.658C48.8873 295.801 47.6178 301.994 47.3577 308.156V308.775C47.3438 308.928 47.3083 309.078 47.2524 309.221C46.1539 314.27 45.88 319.463 46.4411 324.599C46.4744 325.43 46.6856 326.246 47.0604 326.989C47.0294 327.249 46.9923 327.503 46.9551 327.763C44.4837 328.506 41.8463 328.489 39.3842 327.716C36.9222 326.943 34.7486 325.45 33.1448 323.428C31.9062 321.805 31.0701 319.91 30.0111 318.158C29.0203 316.529 27.8126 314.999 27.1933 313.203C26.3449 310.726 26.6793 308.045 26.5121 305.444C26.2321 301.275 24.6484 297.299 21.985 294.08C18.8081 290.271 13.9342 287.075 13.7174 282.121C13.5007 277.167 18.1021 273.123 17.8667 268.249C17.6562 263.951 13.7608 260.65 12.9619 256.42C11.8781 250.704 16.6777 245.328 16.4609 239.519C16.1698 230.911 5.64799 226.013 3.53618 217.658C2.29759 212.735 4.22979 207.644 5.04107 202.622C6.02619 196.507 5.33048 190.239 3.02836 184.489C2.03748 182.011 0.755536 179.677 0.229133 177.057C-0.297269 174.437 0.0928881 171.483 2.0189 169.675C3.87679 167.966 6.66363 167.693 9.06651 168.381C15.4948 170.239 18.6347 177.385 20.2696 183.863C21.9045 190.341 23.2175 197.556 28.4195 201.755C30.9896 203.829 34.21 204.882 37.195 206.294C43.1402 209.106 47.8964 212.221 48.4043 218.922C49.0236 227.443 49.0793 236.157 47.4939 244.585C46.726 248.666 45.636 252.766 45.9642 256.903C46.2925 261.04 48.0946 264.954 49.2713 268.967C49.4013 269.419 49.5314 269.877 49.6429 270.336C51.2035 276.708 50.7019 283.155 49.7667 289.658Z" fill="#504BA2"/>
<path d="M47.0913 326.989C46.7066 326.25 46.4848 325.437 46.441 324.605C45.884 319.468 46.1621 314.275 47.2647 309.228C47.2957 309.079 47.3328 308.93 47.37 308.782C47.147 314.863 47.853 320.994 47.0913 326.989Z" fill="url(#paint13_linear)"/>
<path d="M100.456 193.115C98.7159 195.419 96.214 197.036 94.2942 199.191C88.225 206.003 89.1168 216.364 90.6527 225.362C92.1885 234.361 93.7987 244.418 88.6338 251.943C86.4848 255.039 83.3574 257.392 81.0474 260.402C78.4748 263.776 77.016 267.867 76.8733 272.107C76.6751 278.479 79.4744 284.833 78.2729 291.095C76.4955 300.341 66.9522 305.778 62.0411 313.817C58.9027 319.016 57.7707 325.182 58.858 331.157C55.6614 330.63 52.5262 329.781 49.5004 328.624C48.6728 328.378 47.9221 327.924 47.3204 327.305C47.2351 327.204 47.1584 327.096 47.0913 326.983C46.7074 326.246 46.4857 325.435 46.441 324.605C45.884 319.468 46.1621 314.275 47.2647 309.228C47.2957 309.079 47.3328 308.93 47.37 308.782C48.2494 304.948 49.5499 301.189 49.9463 297.275C50.157 294.738 50.1072 292.185 49.7976 289.658C50.7328 283.155 51.2344 276.708 49.6552 270.379C49.5437 269.921 49.4137 269.462 49.2836 269.01C49.4013 268.614 49.5375 268.218 49.6924 267.828C51.2468 263.827 54.2566 260.495 55.6252 256.426C57.4274 251.057 56.1454 245.211 56.195 239.557C56.2755 229.79 60.6787 220.358 67.7511 213.695C70.2716 211.323 73.238 209.477 74.4085 206.071C75.9753 201.495 75.0278 196.255 73.9069 191.716C72.5878 186.489 71.3368 180.482 74.4519 176.085C76.0001 173.905 78.4401 172.487 80.9793 171.644C87.0855 169.626 94.3747 170.895 98.8769 175.484C103.379 180.073 104.333 188.012 100.456 193.115Z" fill="#413E7C"/>
<path d="M210.227 95.9911C210.227 95.9911 184.173 99.9732 172.121 128.38C160.07 156.788 166.337 191.982 166.548 195.079C166.758 198.175 203.476 211.608 213.973 211.608C224.47 211.608 226.657 201.21 226.657 201.21L208.109 193.4L264.465 186.966H274.584L269.01 196.255C269.01 196.255 280.009 197.395 287.36 197.655C294.711 197.915 299.703 183.541 300.526 176.394C301.35 169.248 268.057 106.519 263.084 102.803C258.111 99.0876 244.616 90.0087 210.227 95.9911Z" fill="#6C63FF"/>
<path d="M241.458 42.7873C241.458 42.7873 246.072 45.4193 245.657 53.9346C245.242 62.4499 242.641 75.2632 240.015 78.5826C237.389 81.9021 228.205 83.2026 228.205 83.2026C228.205 83.2026 233.215 95.2727 236.943 98.3878C240.671 101.503 233.196 112.978 225.926 109.213C218.655 105.448 210.227 95.9911 210.227 95.9911C210.227 95.9911 216.29 84.6022 214.24 78.6074C212.19 72.6126 204.362 51.5751 210.227 45.828C216.091 40.0809 228.737 31.8443 241.458 42.7873Z" fill="url(#paint14_linear)"/>
<path opacity="0.25" d="M199.68 136.883L195.593 186.966L208.078 193.4L218.228 191.66L205.563 176.37L199.68 136.883Z" fill="white"/>
<path opacity="0.25" d="M265.493 134.388C265.493 134.388 281.811 173.224 274.578 186.997L269.004 185.925L265.493 134.388Z" fill="white"/>
<path d="M219.875 199.414C219.875 199.414 213.645 204.987 216.426 209.322C219.207 213.658 222.526 213.534 225.294 211.595C228.062 209.657 233.5 205.056 239.978 207.167C246.456 209.279 248.029 210.623 248.029 210.623C248.029 210.623 251.441 208.387 250.555 206.145C249.67 203.904 242.895 196.639 240.931 195.698C238.968 194.757 230.818 197.649 230.818 197.649C230.818 197.649 224.83 195.952 219.875 199.414Z" fill="url(#paint15_linear)"/>
<path d="M276.43 188.954C276.43 188.954 270.497 189.635 268.998 193.4C267.499 197.166 266.96 197.624 266.96 197.624C266.96 197.624 270.311 198.243 271.704 196.491C273.098 194.738 274.547 195.475 274.547 195.475L274.132 197.723C274.132 197.723 283.236 199.048 287.348 197.624C291.46 196.2 293.225 194.527 293.225 194.527L294.835 190.725C294.835 190.725 290.952 188.006 288.023 187.585C285.093 187.164 276.43 188.954 276.43 188.954Z" fill="url(#paint16_linear)"/>
<path d="M306.546 230.825C306.546 230.825 326.754 246.208 324.958 267.016C323.162 287.825 320.523 318.721 320.523 318.721C320.523 318.721 312.374 322.152 306.973 318.721C301.573 315.291 298.303 268.342 295.628 263.858C292.952 259.374 276.857 239.16 259.659 237.42L306.546 230.825Z" fill="#25233A"/>
<path d="M204.641 245.328C204.641 245.328 214.382 254.618 231.747 257.535C249.112 260.452 257.207 262.886 262.514 277.817C267.821 292.748 272.912 324.883 274.578 328.475C276.244 332.067 283.329 330.234 283.329 330.234C283.329 330.234 287.335 325.639 287.335 300.087C287.335 264.465 289.813 257.163 280.888 248.214C271.964 239.266 263.845 236.825 263.845 236.825L204.641 245.328Z" fill="#3F3D56"/>
<path d="M274.578 328.475L276.231 341.512H279.328C279.328 341.512 299.269 342.601 299.895 342.131C300.52 341.66 298.935 331.807 291.379 332.086C283.824 332.364 283.329 330.228 283.329 330.228L274.578 328.475Z" fill="#25233A"/>
<path d="M309.407 319.793L312.628 332.625L347.816 327.794C347.816 327.794 349.055 319.365 337.907 320.201C334.966 320.418 332.773 322.487 329.237 322.505C325.701 322.524 322.313 321.075 320.53 318.721L309.407 319.793Z" fill="#25233A"/>
<path d="M432.108 158.367L298.916 165.501C297.369 165.582 295.853 165.046 294.701 164.01C293.55 162.974 292.856 161.524 292.773 159.977C292.773 159.878 292.773 159.772 292.773 159.673V65.2863C292.774 63.4486 293.495 61.6845 294.781 60.3718C296.067 59.0592 297.816 58.3023 299.653 58.2635L432.3 55.5262C433.143 55.5089 433.981 55.6579 434.766 55.9644C435.551 56.271 436.268 56.7293 436.876 57.313C437.484 57.8967 437.97 58.5945 438.309 59.3665C438.647 60.1384 438.829 60.9695 438.846 61.8121V151.263C438.844 153.084 438.145 154.835 436.892 156.156C435.638 157.478 433.927 158.269 432.108 158.367Z" fill="#6C63FF"/>
<path d="M438.252 158.367L305.06 165.501C303.513 165.58 301.998 165.042 300.847 164.006C299.696 162.969 299.004 161.517 298.922 159.971C298.922 159.872 298.922 159.773 298.922 159.673V65.2863C298.92 63.4487 299.639 61.6837 300.925 60.3705C302.21 59.0573 303.959 58.3008 305.797 58.2635L438.456 55.5262C440.155 55.4947 441.796 56.1381 443.021 57.3153C444.246 58.4925 444.954 60.1074 444.99 61.8059V151.263C444.988 153.084 444.288 154.835 443.035 156.156C441.782 157.478 440.07 158.269 438.252 158.367Z" fill="#6C63FF"/>
<path d="M438.252 158.367L305.06 165.501C303.513 165.58 301.998 165.042 300.847 164.006C299.696 162.969 299.004 161.517 298.922 159.971C298.922 159.872 298.922 159.773 298.922 159.673V65.2863C298.92 63.4487 299.639 61.6837 300.925 60.3705C302.21 59.0573 303.959 58.3008 305.797 58.2635L438.456 55.5262C440.155 55.4947 441.796 56.1381 443.021 57.3153C444.246 58.4925 444.954 60.1074 444.99 61.8059V151.263C444.988 153.084 444.288 154.835 443.035 156.156C441.782 157.478 440.07 158.269 438.252 158.367Z" fill="url(#paint17_linear)"/>
<path d="M399.471 194.02L365.652 197.624C365.652 197.624 355.353 195.543 355.91 194.02C356.467 192.496 367.237 191.028 367.237 191.028V129.619C367.144 129.483 365.726 127.674 361.843 126.522C361.09 126.299 360.325 126.121 359.551 125.99C358.886 125.892 358.239 125.696 357.632 125.408C355.322 124.212 357.873 122.132 361.459 122.039C362.02 122.019 362.582 122.052 363.137 122.138H389.148C389.148 122.138 398.994 124.912 399.471 138.76C399.948 152.607 399.471 194.02 399.471 194.02Z" fill="#6C63FF"/>
<path d="M371.95 194.15L365.633 197.624C365.633 197.624 355.334 195.543 355.891 194.02C356.449 192.496 367.237 191.028 367.237 191.028V129.619C367.107 129.476 365.528 127.848 361.843 126.522C360.471 126.04 359.063 125.667 357.632 125.408C355.322 124.212 357.873 122.132 361.459 122.039C364.512 122.454 370.525 125.798 370.916 127.705C371.306 129.613 371.95 194.15 371.95 194.15Z" fill="#6C63FF"/>
<path d="M371.95 194.15L365.633 197.624C365.633 197.624 355.334 195.543 355.891 194.02C356.449 192.496 367.237 191.028 367.237 191.028V129.619C367.107 129.476 365.528 127.848 361.843 126.522C360.471 126.04 359.063 125.667 357.632 125.408C355.322 124.212 357.873 122.132 361.459 122.039C364.512 122.454 370.525 125.798 370.916 127.705C371.306 129.613 371.95 194.15 371.95 194.15Z" fill="url(#paint18_linear)"/>
<path d="M245.347 323.149C244.561 323.954 244.195 324.252 244.66 323.589C244.9 323.462 245.13 323.315 245.347 323.149Z" fill="url(#paint19_linear)"/>
</g>
<defs>
<linearGradient id="paint0_linear" x1="189.728" y1="319.019" x2="200.107" y2="319.019" gradientUnits="userSpaceOnUse">
<stop stop-color="#183866"/>
<stop offset="1" stop-color="#1A7FC1"/>
</linearGradient>
<linearGradient id="paint1_linear" x1="214.834" y1="320.332" x2="219.597" y2="320.332" gradientUnits="userSpaceOnUse">
<stop/>
<stop offset="0.99" stop-opacity="0"/>
</linearGradient>
<linearGradient id="paint2_linear" x1="9082.57" y1="1259.21" x2="9699.94" y2="1836.65" gradientUnits="userSpaceOnUse">
<stop stop-opacity="0.56"/>
<stop offset="0.99" stop-color="#5D54E5"/>
</linearGradient>
<linearGradient id="paint3_linear" x1="2117.2" y1="9470.99" x2="1836.17" y2="9463.81" gradientUnits="userSpaceOnUse">
<stop/>
<stop offset="0.99" stop-opacity="0"/>
</linearGradient>
<linearGradient id="paint4_linear" x1="27034.8" y1="1842.43" x2="23270.7" y2="-2786.96" gradientUnits="userSpaceOnUse">
<stop/>
<stop offset="0.99" stop-opacity="0"/>
</linearGradient>
<linearGradient id="paint5_linear" x1="946.935" y1="452.223" x2="939.226" y2="449.789" gradientUnits="userSpaceOnUse">
<stop/>
<stop offset="0.99" stop-opacity="0"/>
</linearGradient>
<linearGradient id="paint6_linear" x1="10109.8" y1="1446.45" x2="9226.71" y2="1934.09" gradientUnits="userSpaceOnUse">
<stop/>
<stop offset="0.99" stop-opacity="0"/>
</linearGradient>
<linearGradient id="paint7_linear" x1="250845" y1="23582.6" x2="-5208.08" y2="-2610.33" gradientUnits="userSpaceOnUse">
<stop/>
<stop offset="0.99" stop-opacity="0"/>
</linearGradient>
<linearGradient id="paint8_linear" x1="78380.1" y1="11151" x2="174953" y2="11151" gradientUnits="userSpaceOnUse">
<stop stop-color="#183866"/>
<stop offset="1" stop-color="#1A7FC1"/>
</linearGradient>
<linearGradient id="paint9_linear" x1="38219" y1="5621.05" x2="38436.2" y2="9198.81" gradientUnits="userSpaceOnUse">
<stop stop-color="#413E7C"/>
<stop offset="0.99" stop-opacity="0"/>
</linearGradient>
<linearGradient id="paint10_linear" x1="8966.42" y1="920.563" x2="5791.3" y2="684.856" gradientUnits="userSpaceOnUse">
<stop/>
<stop offset="0.99" stop-opacity="0"/>
</linearGradient>
<linearGradient id="paint11_linear" x1="12171.4" y1="1514.77" x2="8793.36" y2="1188.46" gradientUnits="userSpaceOnUse">
<stop/>
<stop offset="0.99" stop-opacity="0"/>
</linearGradient>
<linearGradient id="paint12_linear" x1="5508.17" y1="-1076.37" x2="5450.1" y2="478.428" gradientUnits="userSpaceOnUse">
<stop/>
<stop offset="0.99" stop-opacity="0"/>
</linearGradient>
<linearGradient id="paint13_linear" x1="222.888" y1="1498.99" x2="52.782" y2="1554.14" gradientUnits="userSpaceOnUse">
<stop/>
<stop offset="0.99" stop-opacity="0"/>
</linearGradient>
<linearGradient id="paint14_linear" x1="208.071" y1="73.684" x2="245.681" y2="73.684" gradientUnits="userSpaceOnUse">
<stop stop-color="#ECC4D7"/>
<stop offset="0.42" stop-color="#EFD4D1"/>
<stop offset="1" stop-color="#F2EAC9"/>
</linearGradient>
<linearGradient id="paint15_linear" x1="14361.8" y1="4884.23" x2="16338.8" y2="4884.23" gradientUnits="userSpaceOnUse">
<stop stop-color="#ECC4D7"/>
<stop offset="0.42" stop-color="#EFD4D1"/>
<stop offset="1" stop-color="#F2EAC9"/>
</linearGradient>
<linearGradient id="paint16_linear" x1="13842.7" y1="3288.28" x2="15097.3" y2="3288.28" gradientUnits="userSpaceOnUse">
<stop stop-color="#ECC4D7"/>
<stop offset="0.42" stop-color="#EFD4D1"/>
<stop offset="1" stop-color="#F2EAC9"/>
</linearGradient>
<linearGradient id="paint17_linear" x1="115209" y1="36874.7" x2="85616" y2="62893.2" gradientUnits="userSpaceOnUse">
<stop stop-opacity="0.38"/>
<stop offset="1" stop-color="#5C54E4"/>
</linearGradient>
<linearGradient id="paint18_linear" x1="12317.6" y1="18688.8" x2="7296.06" y2="19685" gradientUnits="userSpaceOnUse">
<stop/>
<stop offset="0.99" stop-opacity="0"/>
</linearGradient>
<linearGradient id="paint19_linear" x1="648.054" y1="385.403" x2="646.589" y2="384.861" gradientUnits="userSpaceOnUse">
<stop/>
<stop offset="0.99" stop-opacity="0"/>
</linearGradient>
<clipPath id="clip0">
<rect width="450" height="370.433" fill="white"/>
</clipPath>
</defs>
</svg>
