<svg width="450" height="316" viewBox="0 0 450 316" fill="none" xmlns="http://www.w3.org/2000/svg">
<g clip-path="url(#clip0)">
<path d="M444.91 185.64C444.91 229.715 418.724 245.104 386.421 245.104C354.118 245.104 327.931 229.715 327.931 185.64C327.931 141.565 386.421 85.4941 386.421 85.4941C386.421 85.4941 444.91 141.565 444.91 185.64Z" fill="#F2F2F2"/>
<path d="M384.29 238.362L384.889 201.475L409.819 155.841L384.983 195.688L385.253 179.103L402.434 146.087L385.324 174.714L385.808 144.883L404.206 118.599L385.884 140.192L386.187 85.4943L384.285 157.905L384.441 154.917L365.735 126.269L384.141 160.652L382.398 193.967L382.346 193.083L360.782 162.934L382.281 196.207L382.063 200.373L382.024 200.436L382.042 200.778L377.62 285.302H383.528L384.237 241.644L405.683 208.453L384.29 238.362Z" fill="#3F3D56"/>
<path d="M323.252 145.524C323.252 202.528 289.384 222.432 247.606 222.432C205.827 222.432 171.959 202.528 171.959 145.524C171.959 88.5204 247.606 16.0027 247.606 16.0027C247.606 16.0027 323.252 88.5204 323.252 145.524Z" fill="#F2F2F2"/>
<path d="M244.85 213.712L245.624 166.005L277.867 106.984L245.746 158.521L246.094 137.07L268.316 94.3693L246.186 131.393V131.393L246.813 92.8126L270.608 58.8176L246.911 86.7458L247.303 16.0028L244.843 109.654L245.046 105.79L220.853 68.7382L244.657 113.207L242.403 156.295L242.336 155.151L214.446 116.159L242.252 159.191L241.97 164.58L241.919 164.661L241.942 165.103L236.223 274.421H243.864L244.781 217.956L272.518 175.029L244.85 213.712Z" fill="#3F3D56"/>
<path d="M440.232 293.398C440.232 297.689 427.772 301.695 406.243 305.069C367.231 311.188 298.451 315.25 220.114 315.25C98.5504 315.25 0 305.468 0 293.398C0 291.731 1.89161 290.097 5.47549 288.535C9.51744 286.765 15.7182 285.081 23.7851 283.506C40.4152 280.26 64.9849 277.484 94.9538 275.422C129.741 273.033 171.81 271.611 217.192 271.556C218.163 271.552 219.137 271.55 220.114 271.552C225.581 271.552 231 271.571 236.371 271.611C238.894 271.628 241.407 271.651 243.908 271.679C270.636 271.963 295.931 272.723 318.919 273.869C319.945 273.92 320.968 273.975 321.985 274.026C322.333 274.043 322.681 274.064 323.029 274.081C323.122 274.085 323.215 274.089 323.309 274.098C327.826 274.336 332.244 274.589 336.563 274.858C337.979 274.942 339.383 275.032 340.774 275.125C354.291 276.003 366.769 277.026 377.992 278.176C379.909 278.371 381.789 278.571 383.632 278.775C397.832 280.332 409.788 282.102 419.001 284.024C432.615 286.863 440.232 290.042 440.232 293.398Z" fill="#3F3D56"/>
<path opacity="0.1" d="M319.353 303.153C345.841 303.153 367.314 298.174 367.314 292.033C367.314 285.892 345.841 280.914 319.353 280.914C292.865 280.914 271.391 285.892 271.391 292.033C271.391 298.174 292.865 303.153 319.353 303.153Z" fill="black"/>
<path opacity="0.1" d="M440.232 293.398C440.232 297.689 427.771 301.695 406.243 305.069C389.965 303.291 378.696 299.45 378.696 295.003C378.696 289.465 396.153 284.873 419 284.024C432.615 286.863 440.232 290.042 440.232 293.398Z" fill="black"/>
<path opacity="0.1" d="M238.637 288.327C238.637 295.654 186.437 301.592 122.048 301.592C58.2634 301.592 6.44165 295.767 5.47461 288.533C17.8549 283.126 50.4492 278.483 94.9519 275.42C103.647 275.186 112.721 275.061 122.048 275.061C186.437 275.061 238.637 280.999 238.637 288.327Z" fill="black"/>
<path d="M217.191 0H23.7858V289.887H217.191V0Z" fill="#3F3D56"/>
<path d="M217.191 100.661H35.4836V189.617H217.191V100.661Z" fill="#2F2E41"/>
<path d="M288.548 102.611H108.791V187.276H288.548V102.611Z" fill="#3F3D56"/>
<path d="M159.969 115.097H119.806V129.532H159.969V115.097Z" fill="#6C63FF"/>
<path d="M277.533 140.457H129.749V144.358H277.533V140.457Z" fill="#6C63FF"/>
<path d="M277.533 150.601H129.749V154.502H277.533V150.601Z" fill="#6C63FF"/>
<path d="M277.533 160.745H129.749V164.647H277.533V160.745Z" fill="#6C63FF"/>
<path d="M277.533 170.889H129.749V174.791H277.533V170.889Z" fill="#6C63FF"/>
<path d="M76.8162 32.7732H36.6534V47.2091H76.8162V32.7732Z" fill="#F2F2F2"/>
<path d="M194.38 58.1335H46.5967V62.0351H194.38V58.1335Z" fill="#F2F2F2"/>
<path d="M194.38 68.2776H46.5967V72.1792H194.38V68.2776Z" fill="#F2F2F2"/>
<path d="M194.38 78.4217H46.5967V82.3233H194.38V78.4217Z" fill="#F2F2F2"/>
<path d="M194.38 88.5658H46.5967V92.4674H194.38V88.5658Z" fill="#F2F2F2"/>
<path d="M78.376 198.59H38.2132V213.026H78.376V198.59Z" fill="#F2F2F2"/>
<path d="M195.94 223.951H48.1564V227.852H195.94V223.951Z" fill="#F2F2F2"/>
<path d="M195.94 234.095H48.1564V237.996H195.94V234.095Z" fill="#F2F2F2"/>
<path d="M195.94 244.239H48.1564V248.14H195.94V244.239Z" fill="#F2F2F2"/>
<path d="M195.94 254.383H48.1564V258.284H195.94V254.383Z" fill="#F2F2F2"/>
<path d="M306.671 59.6071C306.671 59.6071 314.689 69.8856 313.687 77.1557C312.684 84.4258 330.223 67.128 330.223 67.128C330.223 67.128 324.21 54.5933 327.467 48.5766C330.724 42.5599 306.671 59.6071 306.671 59.6071Z" fill="#FFB9B9"/>
<path d="M334.733 267.683C334.733 267.683 345.256 279.215 343.502 281.722C341.748 284.229 310.931 293.755 307.423 293.254C303.915 292.753 302.161 290.246 303.414 289.494C304.667 288.741 312.684 284.48 312.684 284.48L319.449 276.708C319.449 276.708 324.46 273.951 324.46 272.446C324.46 270.942 334.733 267.683 334.733 267.683Z" fill="#2F2E41"/>
<path d="M316.944 280.469C316.944 280.469 312.935 286.987 312.183 287.237C311.432 287.488 315.942 296.513 315.942 296.513L326.465 293.254L332.227 288.491L330.974 281.973L316.944 280.469Z" fill="#FFB9B9"/>
<path d="M306.17 156.124L301.159 178.436C301.159 178.436 283.871 217.294 295.898 224.062L322.205 274.452L336.236 268.185L312.684 216.542L323.458 157.127L306.17 156.124Z" fill="#D0CDE1"/>
<path opacity="0.1" d="M306.17 156.124L301.159 178.436C301.159 178.436 283.871 217.294 295.898 224.062L322.205 274.452L336.236 268.185L312.684 216.542L323.458 157.127L306.17 156.124Z" fill="black"/>
<path d="M307.924 159.634H305.382C305.184 167.344 305.615 175.058 306.671 182.698C308.425 195.483 312.935 224.814 312.935 224.814C312.935 224.814 312.434 230.33 313.937 232.085C315.441 233.839 315.691 231.583 315.942 235.594C316.192 239.605 318.572 267.493 318.572 267.493C318.572 267.493 320.201 273.198 318.447 274.452C316.693 275.705 313.186 282.474 315.691 283.477C318.197 284.48 335.484 285.733 336.236 284.981C336.988 284.229 336.236 237.099 336.236 237.099C336.236 237.099 335.735 227.572 335.234 227.071C334.733 226.569 332.478 219.801 333.229 218.296C333.981 216.792 333.48 212.28 333.48 211.528C333.48 210.776 331.225 211.528 333.229 208.269C335.234 205.01 335.484 178.938 335.484 178.938C335.484 178.938 346.258 162.392 343.001 158.13L307.924 159.634Z" fill="#D0CDE1"/>
<path d="M313.687 63.3675C322.819 63.3675 330.223 55.9597 330.223 46.8217C330.223 37.6837 322.819 30.2759 313.687 30.2759C304.554 30.2759 297.151 37.6837 297.151 46.8217C297.151 55.9597 304.554 63.3675 313.687 63.3675Z" fill="#FFB9B9"/>
<path d="M330.223 64.3703C330.223 64.3703 320.201 66.8773 316.192 72.8939L312.684 73.646V77.1557C312.684 77.1557 306.17 97.9633 307.673 106.988C309.177 116.013 307.673 133.562 305.168 138.325C302.662 143.088 301.911 144.091 303.164 146.097C304.416 148.102 306.17 154.871 304.917 157.879C303.665 160.887 304.917 163.896 316.443 164.648C327.968 165.4 344.253 165.4 344.253 161.389C344.253 157.378 343.251 146.097 344.253 143.088C345.256 140.08 345.757 138.074 345.256 135.317C344.755 132.559 346.258 101.724 346.258 101.724C346.258 101.724 346.508 70.8883 330.223 64.3703Z" fill="#2F2E41"/>
<path d="M306.671 141.835L292.891 162.392C292.891 162.392 278.359 175.678 283.621 181.695C288.882 187.712 302.663 164.147 302.663 164.147L317.695 147.099L306.671 141.835Z" fill="#FFB9B9"/>
<path d="M315.441 288.491C315.441 288.491 314.939 285.232 313.186 285.232C311.432 285.232 299.656 293.254 299.656 293.254C299.656 293.254 284.122 295.009 290.135 298.268C296.148 301.527 332.979 302.028 333.229 300.775C333.48 299.521 333.981 287.16 332.227 287.199C330.473 287.237 316.443 289.995 316.443 289.995L315.441 288.491Z" fill="#2F2E41"/>
<path d="M314.863 38.2738C314.276 38.5635 313.628 38.7099 312.973 38.701C312.297 38.7395 311.49 38.6976 311.131 38.1237C310.961 37.746 310.882 37.3336 310.901 36.9197C310.83 36.3884 310.652 35.8769 310.378 35.4163C310.104 34.9556 309.74 34.5553 309.307 34.2396C308.874 33.9238 308.381 33.6992 307.859 33.5792C307.337 33.4592 306.796 33.4464 306.269 33.5415C306.34 34.3702 306.592 35.1731 307.007 35.894C306.274 36.1427 305.494 36.2189 304.728 36.1168C303.961 36.0147 303.228 35.737 302.586 35.3053L302.332 38.6822C301.433 39.112 300.282 39.2017 299.498 38.5865C298.714 37.9714 298.651 36.5277 299.538 36.0732C298.443 35.8447 297.103 35.3538 297.023 34.2373C296.949 33.2187 298.03 32.4731 298.229 31.4714C298.392 30.6544 297.944 29.7664 298.261 28.996C298.677 27.9841 300.188 27.7243 300.491 26.6728C300.645 26.1374 300.423 25.5646 300.476 25.0099C300.615 23.5573 302.44 22.9542 303.896 23.0368C305.352 23.1193 306.941 23.5062 308.178 22.7333C308.778 22.3585 309.197 21.7586 309.724 21.2869C310.452 20.6617 311.358 20.2807 312.315 20.1975C313.271 20.1144 314.229 20.3331 315.054 20.8231C315.64 21.1875 316.151 21.6924 316.804 21.9138C318.14 22.367 319.535 21.5096 320.932 21.3119C321.443 21.2243 321.967 21.2538 322.465 21.3981C322.963 21.5425 323.422 21.7979 323.807 22.1452C324.181 22.5049 324.425 22.978 324.503 23.4911C324.58 24.0042 324.486 24.5285 324.235 24.9826C325.055 24.844 325.924 24.71 326.696 25.0173C327.469 25.3245 328.059 26.2501 327.702 27.0011C327.569 27.198 327.464 27.4124 327.39 27.6382C327.317 28.0751 327.738 28.4487 328.162 28.574C328.587 28.6993 329.048 28.6758 329.464 28.8281C331.181 29.457 330.769 32.2041 332.121 33.4366C332.584 33.774 333.074 34.0738 333.586 34.3332C334.257 34.7988 334.748 35.4809 334.977 36.2654C335.206 37.0499 335.159 37.8892 334.843 38.643C334.572 39.2433 334.118 39.8163 334.173 40.4727C334.249 41.3934 335.235 41.8977 335.927 42.5095C336.558 43.0918 336.99 43.8585 337.161 44.7004C337.331 45.5423 337.232 46.4166 336.878 47.199C336.242 48.5265 334.864 49.5328 334.724 50.9983C334.664 51.6353 334.855 52.2713 334.844 52.9111C334.804 53.5026 334.63 54.0773 334.337 54.5925C334.044 55.1077 333.639 55.55 333.151 55.8867C332.17 56.552 331.064 57.0122 329.901 57.2398C329.355 57.3706 328.703 57.5754 328.571 58.1215C328.414 58.7691 329.136 59.3583 329.061 60.0204C329.014 60.308 328.856 60.5654 328.619 60.736C327.642 61.5008 326.095 60.8451 325.498 59.7571C324.9 58.6691 324.976 57.3506 325.069 56.1126L325.406 51.6107C325.511 50.2099 325.501 48.5465 324.36 47.7284C323.098 46.824 321.26 47.5562 319.834 46.9451C318.347 46.3083 317.814 44.4447 317.874 42.8276C317.934 41.2106 318.397 39.5911 318.13 37.9949C317.8 36.0167 316.042 34.6873 314.266 35.9691C315.827 35.7564 316.096 37.5483 314.863 38.2738Z" fill="#2F2E41"/>
<path opacity="0.1" d="M328.72 76.4036C328.72 76.4036 318.698 80.4147 318.698 88.9383C318.698 97.4619 319.199 108.743 317.445 112.504C315.691 116.264 314.188 117.517 315.19 120.526C316.192 123.534 317.946 123.033 315.19 125.289C312.434 127.545 312.684 123.785 312.434 127.545C312.183 131.306 314.939 131.807 312.434 133.562C309.928 135.317 303.414 142.336 306.17 144.592C308.926 146.849 316.192 154.119 318.698 151.361C321.203 148.603 322.456 141.584 325.964 142.085C329.471 142.587 329.972 142.838 329.471 140.331C328.97 137.824 326.715 137.824 329.722 137.072C332.728 136.319 333.981 138.074 332.979 135.567C331.977 133.06 331.225 132.058 333.229 129.3C335.234 126.542 336.236 125.79 335.985 123.033C335.735 120.275 341.497 95.4563 341.497 95.4563C341.497 95.4563 343.251 74.3981 328.72 76.4036Z" fill="black"/>
<path opacity="0.1" d="M325.963 75.9022C325.963 75.9022 315.942 79.9133 315.942 88.4369C315.942 96.9605 316.443 108.242 314.689 112.002C312.935 115.763 311.432 117.016 312.434 120.024C313.436 123.033 315.19 122.531 312.434 124.788C309.678 127.044 309.928 123.283 309.678 127.044C309.427 130.804 312.183 131.306 309.678 133.06C307.172 134.815 300.658 141.835 303.414 144.091C306.17 146.347 313.436 153.617 315.942 150.86C318.447 148.102 319.7 141.083 323.207 141.584C326.715 142.085 327.216 142.336 326.715 139.829C326.214 137.322 323.959 137.322 326.966 136.57C329.972 135.818 331.225 137.573 330.223 135.066C329.221 132.559 328.469 131.556 330.473 128.799C332.478 126.041 333.48 125.289 333.229 122.531C332.979 119.774 338.741 94.955 338.741 94.955C338.741 94.955 340.495 73.8967 325.963 75.9022Z" fill="black"/>
<path d="M327.216 75.1502C327.216 75.1502 317.194 79.1613 317.194 87.6849C317.194 96.2085 317.695 107.49 315.942 111.25C314.188 115.011 312.684 116.264 313.687 119.272C314.689 122.281 316.443 121.779 313.687 124.035C310.931 126.292 311.181 122.531 310.931 126.292C310.68 130.052 313.436 130.554 310.931 132.308C308.425 134.063 301.911 141.083 304.667 143.339C307.423 145.595 314.689 152.865 317.194 150.108C319.7 147.35 320.953 140.331 324.46 140.832C327.968 141.333 328.469 141.584 327.968 139.077C327.467 136.57 325.212 136.57 328.218 135.818C331.225 135.066 332.478 136.821 331.476 134.314C330.473 131.807 329.722 130.804 331.726 128.047C333.73 125.289 334.733 124.537 334.482 121.779C334.232 119.022 339.994 94.2029 339.994 94.2029C339.994 94.2029 341.748 73.1446 327.216 75.1502Z" fill="#2F2E41"/>
<path d="M379.595 248.351C379.595 270.284 393.347 288.033 410.341 288.033L379.595 248.351Z" fill="#2F2E41"/>
<path d="M410.341 288.033C410.341 265.853 425.688 247.905 444.653 247.905L410.341 288.033Z" fill="#6C63FF"/>
<path d="M390.735 250.339C390.735 271.174 399.504 288.033 410.341 288.033L390.735 250.339Z" fill="#6C63FF"/>
<path d="M410.341 288.033C410.341 259.692 428.079 236.758 450 236.758L410.341 288.033Z" fill="#2F2E41"/>
<path d="M403.873 288.312C403.873 288.312 408.233 288.178 409.547 287.242C410.862 286.305 416.255 285.187 416.581 286.689C416.907 288.191 423.134 294.157 418.211 294.197C413.288 294.237 406.772 293.43 405.461 292.63C404.149 291.831 403.873 288.312 403.873 288.312Z" fill="#A8A8A8"/>
<path opacity="0.2" d="M418.299 293.674C413.376 293.714 406.86 292.907 405.549 292.108C404.55 291.499 404.152 289.314 404.019 288.307C403.926 288.311 403.873 288.312 403.873 288.312C403.873 288.312 404.149 291.831 405.461 292.63C406.772 293.43 413.288 294.237 418.211 294.197C419.632 294.186 420.123 293.68 420.096 292.931C419.898 293.383 419.356 293.666 418.299 293.674Z" fill="black"/>
</g>
<defs>
<clipPath id="clip0">
<rect width="450" height="315.25" fill="white"/>
</clipPath>
</defs>
</svg>
